<svg xmlns="http://www.w3.org/2000/svg" viewBox="0 0 512 512" fill="#E6C347">
  <path d="M208 0c0 45.1 22.2 103.2 48.3 112c0 0 0 .1 0 .1s0 .1 0 .1c26.1 8.7 48.3 66.9 48.3 112c0 16.8-3.2 31.9-8.3 44.9c-5.1 13-12.5 23.8-21.7 31.1c-18.4 14.6-43.3 21.9-68.3 21.9s-49.9-7.3-68.3-21.9c-9.2-7.3-16.6-18.1-21.7-31.1C111.2 256.9 108 241.8 108 225c0-45.1 22.2-103.2 48.3-112c0 0 0-.1 0-.1s0-.1 0-.1C182.2 103.2 204 45.1 204 0h4zm-96 320.2c12.1-12.1 28.6-18.2 45.3-18.2h93.5c16.7 0 33.2 6.1 45.3 18.2l90.5 90.5c12.5 12.5 12.5 32.8 0 45.3l-22.6 22.6c-12.5 12.5-32.8 12.5-45.3 0L226.3 386.3c-6.2-6.2-16.4-6.2-22.6 0L111.4 478.6c-12.5 12.5-32.8 12.5-45.3 0L43.5 456c-12.5-12.5-12.5-32.8 0-45.3l68.5-90.5z"/>
</svg>
