<?xml version="1.0" standalone="no"?>
<!DOCTYPE svg PUBLIC "-//W3C//DTD SVG 20010904//EN"
 "http://www.w3.org/TR/2001/REC-SVG-20010904/DTD/svg10.dtd">
<svg version="1.0" xmlns="http://www.w3.org/2000/svg"
 width="500.000000pt" height="500.000000pt" viewBox="0 0 500.000000 500.000000"
 preserveAspectRatio="xMidYMid meet">
<metadata>
Created by potrace 1.16, written by Peter Selinger 2001-2019
</metadata>
<g transform="translate(0.000000,500.000000) scale(0.100000,-0.100000)"
fill="#000000" stroke="none">
<path d="M2277 4850 c-559 -64 -1045 -293 -1437 -680 -361 -355 -585 -790
-677 -1310 -14 -84 -18 -156 -18 -365 0 -228 3 -275 23 -380 28 -149 64 -283
107 -400 18 -49 36 -100 40 -112 13 -44 94 -200 163 -315 285 -471 737 -838
1242 -1010 271 -92 458 -126 735 -135 273 -8 503 29 812 132 526 175 983 550
1271 1040 149 255 236 498 299 835 14 75 18 149 17 350 0 221 -3 272 -23 384
-52 297 -150 562 -299 810 -201 336 -482 619 -814 820 -155 94 -257 142 -423
201 -275 98 -476 135 -750 140 -104 2 -225 0 -268 -5z m793 -622 c25 -79 44
-97 129 -123 33 -10 58 -21 56 -25 -3 -4 -21 -11 -42 -15 -80 -15 -110 -34
-131 -83 -11 -26 -23 -62 -27 -79 -10 -50 -21 -47 -33 9 -25 106 -58 139 -152
154 -22 4 -42 10 -45 14 -2 3 27 16 65 29 82 26 100 46 126 135 10 36 21 62
25 58 4 -4 16 -37 29 -74z m273 -244 c45 -29 77 -78 77 -117 0 -42 -34 -100
-84 -143 -49 -43 -56 -47 -309 -169 -253 -121 -316 -185 -305 -306 6 -54 -6
-56 -28 -3 -18 43 -18 106 1 150 8 20 41 61 73 93 61 60 140 105 321 185 249
110 318 216 204 316 -31 28 -33 31 -12 25 13 -4 41 -18 62 -31z m47 -539 c0
-3 -11 -52 -25 -110 -46 -195 -136 -395 -267 -592 -44 -68 -86 -123 -93 -123
-7 0 -46 -17 -86 -37 l-74 -37 44 -8 c24 -4 46 -9 48 -12 2 -2 -9 -30 -25 -63
-17 -32 -51 -106 -77 -163 -55 -121 -130 -235 -192 -290 -24 -21 -78 -57 -121
-80 -72 -38 -74 -41 -37 -35 22 3 53 8 68 11 26 6 28 4 18 -14 -10 -19 -43
-50 -164 -152 -27 -22 -89 -69 -139 -103 l-90 -62 64 -7 c110 -13 121 -21 38
-28 -42 -4 -102 -15 -135 -25 l-60 -17 30 -13 c42 -20 60 -35 78 -72 26 -50
20 -60 -15 -26 -36 34 -76 53 -113 53 l-24 0 24 -36 c17 -25 25 -51 25 -80 0
-55 -16 -65 -24 -15 -12 75 -127 147 -138 87 -5 -26 7 -36 42 -36 10 0 22 -5
25 -10 10 -16 -15 -110 -28 -110 -15 0 -280 70 -285 75 -3 2 1 27 8 55 l12 50
42 -2 c39 -3 41 -1 44 26 2 16 -2 33 -10 37 -16 11 -62 2 -103 -18 l-30 -15
29 31 c16 17 38 33 48 37 24 7 23 19 -4 32 -17 8 -18 11 -7 11 9 1 27 -8 40
-18 l24 -19 -33 -14 -33 -13 49 -1 49 -2 33 87 c18 47 46 113 62 146 16 33 43
91 59 130 65 151 224 405 364 580 164 206 394 436 550 550 l40 30 -39 -45
c-21 -25 -85 -94 -141 -155 -242 -259 -444 -558 -614 -908 -89 -182 -114 -246
-163 -413 l-15 -51 38 -17 c22 -10 51 -33 65 -52 15 -19 29 -33 31 -30 9 8
-29 77 -51 91 -19 14 -18 15 27 15 28 0 64 -8 87 -20 22 -11 40 -17 40 -12 0
15 -33 40 -78 60 -40 18 -41 19 -19 29 13 6 58 18 100 28 42 9 77 19 77 22 0
3 -31 3 -68 1 l-69 -5 81 55 c110 75 336 259 336 275 0 1 -35 1 -77 -1 l-78
-2 98 49 c125 64 167 97 229 185 38 54 208 383 208 403 0 1 -15 3 -32 4 -18 1
-44 4 -58 8 -24 7 -24 8 20 33 25 15 72 39 105 53 58 26 63 31 135 143 120
186 212 391 260 576 24 95 24 96 5 96 -23 0 -473 -232 -555 -286 -82 -54 -109
-87 -177 -219 -51 -98 -58 -97 -51 12 2 35 2 63 1 63 -9 0 -116 -90 -196 -163
-83 -77 -89 -85 -109 -152 -11 -38 -32 -99 -46 -135 -25 -62 -26 -63 -33 -35
-5 15 -5 49 -2 73 l6 45 -24 -18 c-35 -27 -147 -157 -196 -227 -23 -32 -61
-96 -84 -141 -42 -80 -43 -85 -49 -202 l-5 -120 -31 64 -31 65 -14 -55 c-15
-58 -19 -260 -6 -319 l7 -35 -25 30 c-25 29 -24 29 5 -38 16 -38 30 -70 30
-70 0 -1 -30 -3 -67 -4 -42 -1 -61 2 -52 8 8 5 33 9 57 9 l42 0 -40 78 c-22
42 -48 88 -57 101 l-17 24 31 -17 c18 -9 39 -26 48 -38 16 -22 17 -20 10 42
-7 78 7 201 33 285 l18 60 17 -57 c26 -87 37 -81 37 19 0 77 4 96 30 152 37
77 106 185 168 261 52 63 164 180 172 180 4 0 5 -28 3 -62 l-2 -63 37 113 37
113 94 85 c89 80 219 184 232 184 3 0 -1 -30 -8 -66 -17 -81 -12 -103 11 -49
9 22 35 71 58 108 33 55 55 78 112 116 39 27 94 60 122 74 28 14 54 33 57 42
4 8 15 15 26 15 11 0 76 27 143 61 166 82 268 122 268 104z m-1568 -2215 c39
-11 72 -21 74 -23 2 -2 8 -37 14 -78 5 -41 14 -89 21 -107 10 -30 9 -35 -27
-78 -59 -70 -115 -145 -159 -213 -22 -33 -43 -61 -46 -61 -4 0 4 42 17 93 13
50 28 115 34 142 8 37 17 53 33 60 29 13 30 62 2 81 -18 12 -24 11 -43 -2 -24
-17 -28 -44 -11 -73 9 -14 6 -43 -14 -133 -15 -63 -30 -126 -35 -139 -10 -27
-5 -48 -58 228 l-27 142 40 48 c22 26 50 67 62 91 12 23 28 42 36 42 9 0 47
-9 87 -20z"/>
<path d="M3020 4211 c-14 -60 -40 -85 -111 -109 l-54 -19 55 -16 c77 -23 89
-35 109 -107 l18 -64 17 52 c18 54 59 112 79 112 7 0 30 5 51 11 l40 11 -54
19 c-68 24 -95 49 -110 105 -7 24 -16 47 -20 49 -5 3 -13 -17 -20 -44z"/>
<path d="M3345 3955 c19 -47 17 -94 -6 -131 -25 -40 -140 -121 -216 -150 -26
-11 -100 -45 -163 -76 -187 -92 -281 -196 -268 -296 3 -24 5 -21 17 18 9 33
29 61 74 105 62 60 169 120 367 205 137 60 214 120 245 193 19 47 8 91 -32
128 -23 21 -25 22 -18 4z"/>
<path d="M1706 1378 c-14 -53 -12 -54 125 -88 144 -36 149 -35 149 25 l0 31
-124 27 c-68 15 -128 27 -134 27 -5 0 -12 -10 -16 -22z"/>
<path d="M1710 1195 c-13 -22 -40 -60 -61 -85 l-38 -45 24 -120 c13 -66 27
-142 32 -170 l9 -50 27 112 c25 108 26 114 9 142 -16 29 -16 31 4 58 26 34 48
40 79 19 34 -23 35 -77 1 -103 -18 -14 -30 -42 -50 -122 -14 -58 -24 -106 -22
-108 2 -2 16 18 31 44 27 46 82 120 143 192 28 33 29 36 15 69 -8 19 -17 65
-20 101 l-6 67 -77 20 -77 20 -23 -41z"/>
<path d="M191 3292 c-6 -11 -12 -29 -14 -39 -1 -10 -5 -22 -9 -28 -11 -18 -46
-158 -61 -245 -35 -197 -42 -272 -42 -485 0 -178 5 -247 23 -365 30 -191 32
-201 43 -194 6 3 8 -4 4 -18 -3 -12 2 -41 10 -63 12 -30 14 -32 10 -10 -4 17
-6 51 -5 77 0 25 -3 49 -7 51 -5 3 -8 21 -8 41 1 19 -3 32 -8 29 -5 -3 -6 7
-2 25 4 19 2 33 -5 37 -9 6 -9 10 1 16 11 6 11 16 1 54 -7 25 -12 53 -12 63 0
15 2 15 11 2 9 -12 9 -11 4 5 -4 11 -6 36 -5 55 1 19 3 126 4 237 0 110 4 199
9 196 7 -4 3 40 -9 107 l-4 25 14 -24 c12 -22 13 -14 12 77 -1 76 2 102 11
102 7 0 13 5 13 10 0 6 -5 10 -10 10 -7 0 -7 6 -1 19 6 10 7 22 3 27 -4 5 2 2
12 -6 19 -15 19 -14 3 17 -19 35 -23 57 -6 33 8 -12 9 -10 7 10 -1 14 1 30 4
36 4 6 6 24 4 40 -2 16 3 42 11 57 16 33 11 50 -6 19z"/>
<path d="M4835 3188 c3 -16 0 -28 -8 -31 -9 -4 -9 -6 1 -6 6 -1 12 -10 12 -21
0 -11 4 -20 9 -20 5 0 5 -15 1 -35 -5 -24 -4 -40 6 -52 7 -10 13 -25 13 -33 0
-9 -5 -6 -12 8 -19 34 -29 15 -11 -20 15 -29 15 -38 -1 -83 -5 -16 -5 -17 4
-5 9 12 11 10 11 -11 0 -15 7 -45 15 -68 8 -23 10 -39 5 -36 -10 6 -14 -67 -4
-77 5 -6 17 -134 15 -173 0 -11 -1 -71 -2 -132 0 -62 -5 -113 -10 -113 -5 0
-9 -4 -9 -10 0 -5 5 -9 12 -7 6 1 13 -7 15 -18 3 -16 2 -17 -6 -5 -15 21 -15
-5 0 -32 6 -11 7 -18 1 -14 -5 3 -12 -9 -16 -26 -4 -20 -2 -34 6 -39 10 -6 10
-16 -1 -46 -8 -21 -19 -41 -25 -45 -6 -4 -1 -6 11 -5 28 2 29 3 50 139 26 167
23 506 -5 693 -26 167 -52 285 -64 285 -5 0 -7 4 -4 9 4 5 1 20 -4 33 -10 22
-10 22 -5 -4z"/>
</g>
</svg>
