<svg xmlns="http://www.w3.org/2000/svg" width="1024" height="1024" viewBox="0 0 1024 1024">
<g>
<path d="M 563.58 991.61 C551.27,993.07 491.78,994.40 483.00,993.41 C481.08,993.20 473.88,992.54 467.00,991.95 C436.87,989.37 405.64,983.34 371.00,973.40 C326.73,960.70 284.13,940.52 244.00,913.23 C197.36,881.52 159.57,845.90 127.55,803.49 C71.46,729.18 39.39,646.10 30.86,553.00 C29.12,533.99 29.38,489.32 31.35,468.25 C35.62,422.60 44.46,383.09 59.47,342.50 C70.47,312.74 89.99,274.67 107.90,248.00 C118.93,231.60 122.39,226.85 133.40,213.10 C212.28,114.53 321.71,51.74 444.50,34.58 C486.17,28.75 536.13,28.57 576.00,34.11 C614.36,39.43 639.41,45.83 686.91,62.45 C725.70,76.02 773.86,103.82 815.00,136.38 C828.60,147.15 859.66,177.26 874.44,194.00 C893.85,215.98 918.70,250.73 932.85,275.67 C940.27,288.73 954.95,319.41 960.53,333.50 C977.82,377.12 988.10,420.90 992.55,469.87 C994.65,492.93 994.13,544.62 991.58,566.89 C981.02,659.14 944.74,744.69 885.64,816.71 C869.39,836.50 853.33,853.63 838.94,866.50 C832.18,872.55 823.65,880.21 819.99,883.52 C804.26,897.76 770.54,921.10 746.00,934.73 C729.45,943.92 704.28,956.00 701.67,956.00 C701.08,956.00 694.95,958.22 688.05,960.93 C649.61,976.03 607.62,986.38 563.58,991.61 ZM 402.50 770.27 C403.60,770.48 404.87,770.34 405.31,769.96 C405.76,769.58 407.25,764.41 408.62,758.48 L 408.70 758.12 C410.27,751.34 410.92,748.50 409.79,747.12 C408.96,746.10 407.14,745.88 404.00,745.45 C394.15,744.12 393.14,742.89 395.94,735.62 C396.96,732.97 397.36,732.78 401.04,733.28 C406.59,734.02 414.33,739.27 417.96,744.76 C420.76,748.99 423.02,755.06 424.52,762.39 C425.39,766.66 426.88,764.41 428.07,757.04 C429.67,747.11 428.04,741.23 421.18,732.09 L 418.86 729.00 L 421.04 729.00 C425.53,729.00 435.67,732.26 440.25,735.18 C442.87,736.85 447.04,740.48 449.53,743.24 C452.02,746.01 454.27,748.06 454.53,747.80 C455.24,747.09 451.33,736.27 449.00,732.50 C445.99,727.63 439.43,722.08 433.69,719.54 L 428.64 717.32 L 436.81 715.11 C449.83,711.60 459.68,709.96 471.79,709.30 C478.01,708.97 482.73,708.38 482.29,708.01 C479.62,705.71 466.44,702.70 456.56,702.13 L 445.63 701.50 L 451.56 697.84 C460.67,692.23 478.23,679.60 491.22,669.31 C504.47,658.82 529.87,634.57 528.78,633.46 C528.38,633.06 525.46,633.23 522.28,633.85 C519.10,634.47 513.12,635.23 509.00,635.55 L 501.50 636.14 L 510.20 632.08 C541.93,617.32 557.18,600.84 577.86,559.00 C587.47,539.54 603.00,506.70 603.00,505.82 C603.00,505.51 598.44,504.93 592.86,504.54 L 582.72 503.82 L 587.11 501.31 C593.45,497.69 614.05,487.26 617.08,486.14 C622.42,484.15 652.00,436.82 665.54,408.59 C678.71,381.12 691.05,342.43 693.63,320.51 C694.28,314.95 694.28,314.94 691.89,315.85 C681.43,319.83 665.51,327.35 626.87,346.54 C613.85,353.01 612.07,353.64 610.74,352.31 C608.72,350.29 605.01,352.21 604.98,355.29 C604.97,357.04 602.80,358.74 594.46,363.50 C588.68,366.80 577.77,373.38 570.22,378.12 C559.00,385.18 555.80,387.72 552.68,392.12 C548.68,397.74 535.84,420.06 531.89,428.25 C530.63,430.86 529.33,433.00 529.00,433.00 C527.99,433.00 529.85,417.98 531.90,409.50 C532.97,405.11 533.66,401.33 533.45,401.11 C532.40,400.06 499.93,426.15 481.67,442.72 C466.61,456.38 465.87,457.47 461.47,472.50 C460.02,477.45 457.52,485.67 455.91,490.76 C454.31,495.86 453.00,500.67 453.00,501.45 C453.00,502.24 452.48,503.21 451.84,503.60 C450.97,504.14 450.84,501.31 451.32,492.28 C451.68,485.66 452.25,479.51 452.59,478.62 C454.21,474.39 449.39,477.96 438.91,488.75 C414.67,513.70 397.27,537.06 384.03,562.44 C375.67,578.47 374.81,582.00 374.64,600.75 C374.56,609.69 374.21,617.00 373.86,617.00 C372.51,617.00 366.04,598.27 366.01,594.31 C366.01,593.10 365.58,591.86 365.07,591.54 C363.41,590.52 362.95,591.67 358.54,608.00 C357.57,611.58 356.40,615.40 355.95,616.50 C353.06,623.45 351.67,649.32 353.31,665.47 L 354.12 673.43 L 347.81 667.37 C338.65,658.57 329.23,654.09 336.26,661.87 C340.57,666.64 346.94,677.44 352.66,689.69 C355.05,694.79 357.00,699.15 357.00,699.37 C357.00,699.59 354.19,699.55 350.75,699.28 C345.70,698.88 343.36,699.24 338.57,701.17 C335.31,702.49 332.50,704.00 332.33,704.53 C332.14,705.09 335.06,705.52 339.26,705.55 C345.17,705.60 347.50,706.12 351.94,708.42 L 357.37 711.22 L 352.25 713.66 C349.21,715.10 344.87,718.53 341.57,722.10 C335.88,728.25 334.21,731.53 338.25,728.63 C344.82,723.92 349.62,721.71 355.54,720.70 C362.79,719.46 364.53,719.99 366.90,724.17 C368.11,726.28 368.11,727.26 366.90,731.07 C365.30,736.09 365.22,736.11 355.11,733.56 C351.59,732.68 348.58,732.09 348.41,732.26 C347.45,733.21 343.09,754.48 343.73,755.06 C344.15,755.45 354.85,758.31 367.50,761.41 C380.15,764.52 392.75,767.70 395.50,768.48 C398.25,769.25 401.40,770.06 402.50,770.27 ZM 422.59 739.56 C424.00,741.97 425.00,745.03 424.82,746.41 C424.53,748.69 424.24,748.49 421.25,743.96 C417.26,737.90 410.23,732.58 403.25,730.33 C400.36,729.40 398.00,728.37 398.00,728.04 C398.00,727.71 401.35,717.31 405.44,704.92 C416.25,672.18 422.94,656.04 439.12,623.66 C476.78,548.32 519.79,488.46 582.39,424.27 C590.58,415.87 596.69,409.00 595.98,409.00 C594.60,409.00 578.97,420.41 570.39,427.67 C567.58,430.05 564.75,432.00 564.09,432.00 C561.38,432.00 494.00,500.63 494.00,503.40 C494.00,503.72 488.89,510.20 482.64,517.78 C462.56,542.18 445.45,566.23 431.61,589.50 C428.02,595.55 423.82,602.48 422.29,604.91 C412.11,621.00 401.94,640.71 391.28,665.00 C382.49,685.01 373.00,709.25 373.00,711.69 C373.00,712.52 372.29,714.69 371.43,716.52 L 369.85 719.84 L 366.18 718.30 C363.61,717.23 360.69,716.93 356.50,717.31 C350.81,717.82 350.65,717.78 353.50,716.47 C355.15,715.71 357.96,714.79 359.75,714.43 C361.54,714.07 363.00,713.47 363.00,713.08 C363.00,711.28 355.93,706.02 351.00,704.17 L 345.50 702.10 L 349.63 702.05 C351.90,702.02 355.37,702.67 357.35,703.50 C359.32,704.33 361.38,705.00 361.92,705.00 C362.96,705.00 356.82,689.55 351.91,679.81 C350.29,676.62 349.17,674.00 349.41,674.00 C349.64,674.00 352.13,677.15 354.93,681.00 C357.73,684.85 360.16,688.00 360.33,688.00 C360.51,688.00 359.79,682.94 358.75,676.75 C356.24,661.82 356.05,636.15 358.36,623.21 C360.24,612.63 363.04,602.00 363.93,602.00 C364.26,602.00 365.77,605.49 367.29,609.75 C370.49,618.77 375.69,628.31 376.97,627.52 C377.45,627.22 377.90,617.64 377.96,606.24 C378.02,594.83 378.55,583.71 379.13,581.52 C382.89,567.53 399.15,540.37 416.87,518.50 C428.05,504.71 446.33,485.00 447.95,485.00 C448.32,485.00 448.43,490.15 448.19,496.44 C447.73,508.35 448.50,515.90 450.01,514.38 C450.50,513.90 452.88,508.33 455.30,502.00 C459.37,491.40 461.20,485.78 466.86,466.50 C468.70,460.24 469.63,458.81 475.71,452.94 C479.44,449.34 486.10,443.27 490.50,439.45 C494.90,435.64 498.73,432.29 499.00,432.00 C502.23,428.67 527.18,409.00 528.17,409.00 C528.44,409.00 528.07,411.81 527.35,415.25 C525.87,422.30 525.58,438.79 526.89,440.86 C527.74,442.19 529.85,438.77 542.50,415.50 C544.59,411.65 548.97,404.36 552.23,399.29 C558.74,389.17 561.44,387.03 585.50,372.83 C604.58,361.58 649.46,338.56 669.00,330.00 C673.12,328.19 679.38,325.42 682.90,323.84 C686.42,322.26 689.53,321.19 689.81,321.47 C690.50,322.17 682.57,355.20 678.75,367.50 C675.33,378.53 666.14,400.79 659.82,413.36 C654.51,423.92 644.46,441.60 641.96,444.77 C640.88,446.15 640.00,447.68 640.00,448.18 C640.00,448.67 639.17,450.30 638.15,451.79 C637.13,453.28 632.40,460.41 627.65,467.62 C622.90,474.84 618.44,481.21 617.75,481.78 C617.06,482.35 609.53,486.39 601.00,490.75 C578.82,502.10 575.00,504.35 575.00,506.02 C575.00,506.45 580.17,507.13 586.50,507.52 C592.83,507.92 598.00,508.39 598.00,508.56 C598.00,508.74 594.17,516.83 589.50,526.53 C584.83,536.23 581.00,544.74 581.00,545.44 C581.00,546.13 577.85,552.85 573.99,560.37 C559.02,589.59 545.65,606.45 528.52,617.75 C521.78,622.20 496.66,634.72 490.56,636.68 C488.95,637.20 487.42,638.23 487.18,638.97 C486.81,640.08 489.30,640.20 501.11,639.68 C509.03,639.34 516.62,638.78 518.00,638.45 C523.06,637.23 497.78,660.19 476.50,676.15 C464.62,685.05 446.98,697.16 438.19,702.43 C434.72,704.51 432.11,706.44 432.39,706.72 C432.67,707.00 438.20,706.68 444.70,706.02 C452.31,705.24 457.37,705.15 458.96,705.76 C461.09,706.57 460.50,706.86 454.46,707.95 C439.35,710.67 420.00,716.30 420.00,717.97 C420.00,718.36 422.81,719.45 426.25,720.40 C434.14,722.58 439.99,725.97 443.16,730.20 C447.36,735.79 447.29,736.13 442.55,732.93 C435.43,728.13 428.21,726.00 419.02,726.00 C414.61,726.00 411.00,726.28 411.00,726.62 C411.00,726.97 413.03,729.04 415.52,731.22 C418.00,733.41 421.18,737.16 422.59,739.56 ZM 347.02 884.75 C347.01,885.99 347.42,887.00 347.93,887.00 C348.45,887.00 352.47,881.71 356.88,875.25 C370.72,854.95 387.88,832.10 394.68,824.92 L 398.07 821.34 L 396.08 816.69 C393.19,809.95 390.90,797.98 390.27,786.39 L 389.73 776.28 L 372.61 771.99 C363.20,769.62 354.96,767.50 354.31,767.26 C353.63,767.02 351.73,769.58 349.93,773.16 C345.12,782.72 338.72,792.23 332.63,798.86 L 327.16 804.80 L 329.06 813.15 C331.94,825.78 333.46,834.26 337.56,860.50 C339.63,873.70 341.67,884.91 342.11,885.40 C343.43,886.90 344.78,882.49 349.91,860.00 C350.68,856.61 351.38,853.57 352.00,850.84 C356.65,830.59 357.32,827.64 356.15,826.14 C355.79,825.68 355.26,825.35 354.62,824.71 C348.70,818.79 353.14,808.00 361.50,808.00 C364.21,808.00 365.91,808.76 368.08,810.92 C373.04,815.89 371.59,823.57 365.11,826.59 C363.13,827.51 361.39,828.35 361.26,828.46 C361.13,828.56 359.47,834.69 357.58,842.07 C355.69,849.46 352.54,861.58 350.59,869.00 C348.64,876.42 347.04,883.51 347.02,884.75 ZM 555.31 364.67 C557.88,368.52 559.28,368.10 557.82,363.92 C557.23,362.23 556.96,357.00 557.20,352.19 C557.55,345.39 558.21,342.40 560.24,338.45 C567.61,324.08 585.64,310.80 616.50,296.99 C650.12,281.95 656.49,278.93 665.86,273.63 C671.31,270.54 677.22,266.66 678.99,265.01 C680.76,263.35 682.55,262.00 682.96,262.00 C684.95,262.00 694.45,250.27 697.18,244.43 C699.91,238.59 700.20,237.10 699.78,231.17 C699.26,223.86 697.61,219.91 692.85,214.48 C689.15,210.27 677.94,203.48 673.00,202.46 L 669.50 201.73 L 675.58 207.62 C682.56,214.36 685.00,219.93 685.00,229.09 C685.00,234.22 684.60,235.33 681.17,239.66 C671.36,252.08 662.12,258.01 628.44,273.54 C584.62,293.76 571.58,301.95 559.95,316.56 C552.45,325.99 549.69,332.78 549.19,343.06 C548.75,352.10 550.11,356.89 555.31,364.67 ZM 357.33 870.37 C352.35,877.33 351.60,878.02 352.35,875.00 C352.69,873.62 355.33,862.96 358.22,851.30 C362.72,833.13 363.76,830.03 365.51,829.59 C369.16,828.67 373.28,823.40 373.53,819.34 C374.05,810.73 369.82,806.00 361.59,806.00 C355.80,806.00 352.75,807.65 350.49,812.01 C348.25,816.35 348.64,821.20 351.58,825.53 L 354.17 829.33 L 350.50 844.92 C345.23,867.30 343.19,875.58 343.09,874.90 C339.82,852.21 335.14,826.38 332.03,813.89 L 330.02 805.79 L 336.07 799.19 C341.84,792.88 350.75,779.41 352.93,773.69 C353.49,772.21 354.71,771.00 355.63,771.00 C356.94,771.00 373.44,775.24 385.10,778.58 C386.37,778.95 386.82,781.06 387.30,788.88 C387.93,799.25 388.93,804.54 392.17,814.74 L 394.16 820.98 L 391.83 823.83 C377.32,841.56 361.00,863.17 361.00,864.66 C361.00,864.98 359.35,867.54 357.33,870.37 ZM 621.59 231.75 C622.43,234.79 623.78,232.14 627.72,219.70 C630.03,212.38 632.96,204.85 634.22,202.95 C637.05,198.67 642.31,196.05 656.80,191.71 C663.01,189.84 667.96,187.91 667.80,187.41 C667.63,186.91 662.78,185.12 657.00,183.43 C643.76,179.55 636.50,175.86 633.94,171.71 C632.36,169.15 627.73,155.65 624.34,143.69 C623.66,141.29 621.80,142.03 620.90,145.06 C617.73,155.72 613.44,168.14 611.84,171.29 C609.62,175.66 605.58,178.43 598.50,180.44 C582.06,185.08 577.99,186.46 578.27,187.30 C578.44,187.81 583.96,189.89 590.54,191.93 C604.59,196.27 608.15,198.00 610.80,201.73 C613.37,205.37 618.38,218.07 619.98,225.00 C620.68,228.02 621.41,231.06 621.59,231.75 ZM 554.60 346.25 C553.69,349.41 552.68,352.00 552.35,352.00 C552.03,352.00 551.96,347.84 552.20,342.75 C552.57,334.85 553.09,332.60 555.79,327.34 C564.23,310.83 582.79,297.34 620.43,280.37 C675.25,255.66 688.00,245.59 688.00,227.00 C688.00,220.81 686.20,214.99 683.31,211.79 C682.12,210.47 682.04,210.00 683.00,210.00 C684.65,210.00 695.11,220.55 694.28,221.38 C693.94,221.72 694.09,222.00 694.62,222.00 C695.85,222.00 696.44,226.00 696.35,233.62 C696.26,240.95 693.76,246.52 687.22,254.00 C677.29,265.35 664.92,272.39 620.50,291.96 C578.16,310.61 560.73,324.98 554.60,346.25 ZM 625.92 217.07 C624.66,221.43 623.33,225.00 622.97,225.00 C622.61,225.00 621.06,220.84 619.54,215.75 C614.44,198.71 611.85,195.79 597.97,191.44 C593.31,189.98 588.61,188.46 587.52,188.05 C586.02,187.49 587.99,186.52 595.52,184.10 C601.01,182.34 606.99,179.91 608.82,178.70 C612.85,176.03 615.86,170.38 619.49,158.67 C621.00,153.81 622.57,150.21 622.99,150.67 C623.41,151.12 624.98,155.32 626.49,160.00 C629.96,170.78 633.11,176.29 637.27,178.86 C639.08,179.98 644.82,182.31 650.03,184.05 C655.24,185.79 659.62,187.33 659.77,187.46 C659.93,187.60 655.45,189.17 649.83,190.96 C644.21,192.74 638.05,195.38 636.15,196.84 C632.17,199.87 629.18,205.79 625.92,217.07 ZM 404.89 761.75 C404.31,764.69 403.34,766.94 402.68,766.87 C398.79,766.44 349.63,754.01 348.12,753.07 C347.15,752.47 347.31,750.59 348.86,744.57 C349.95,740.31 351.01,736.66 351.22,736.45 C351.79,735.87 379.18,742.27 400.00,747.84 L 406.50 749.58 L 406.21 753.04 C406.05,754.94 405.46,758.86 404.89,761.75 ZM 565.66 266.03 C566.57,270.61 568.11,269.17 570.74,261.27 C572.08,257.26 573.85,253.86 574.80,253.44 C575.74,253.05 579.18,251.71 582.46,250.49 C589.22,247.95 590.42,246.38 586.32,245.40 C584.77,245.04 581.17,243.65 578.32,242.33 C573.32,240.00 573.06,239.68 570.80,232.89 C569.51,229.02 568.02,225.85 567.50,225.85 C566.98,225.85 565.51,228.96 564.25,232.76 C561.74,240.28 559.36,242.37 550.25,245.06 C546.06,246.30 544.80,247.71 547.25,248.43 C547.94,248.63 551.27,249.78 554.67,250.99 C560.42,253.03 560.97,253.51 562.94,258.08 C564.10,260.77 565.32,264.35 565.66,266.03 ZM 703.71 292.19 C704.61,295.41 705.80,297.90 706.36,297.71 C706.92,297.53 708.36,294.33 709.57,290.60 C710.78,286.88 712.18,283.42 712.68,282.92 C713.18,282.42 716.72,280.95 720.55,279.66 C724.37,278.37 727.42,276.93 727.31,276.47 C727.21,276.01 724.10,274.61 720.39,273.36 C716.69,272.11 713.10,270.51 712.42,269.80 C711.73,269.08 710.34,265.66 709.33,262.19 C708.33,258.71 707.05,255.85 706.50,255.83 C705.95,255.80 704.48,258.86 703.24,262.62 C701.99,266.38 700.42,269.98 699.74,270.64 C699.06,271.29 695.49,272.65 691.80,273.66 C688.12,274.67 685.06,275.92 684.99,276.44 C684.93,276.95 687.94,278.40 691.69,279.66 C699.66,282.33 701.51,284.25 703.71,292.19 ZM 528.86 381.12 C529.98,383.81 531.26,386.00 531.71,386.00 C532.16,386.00 533.32,383.78 534.28,381.08 C535.82,376.73 536.55,375.96 540.51,374.44 C545.25,372.63 546.15,371.29 543.25,370.40 C536.61,368.34 534.99,366.99 533.79,362.52 C532.28,356.85 530.23,356.68 529.36,362.15 C528.56,367.14 525.98,369.99 522.25,370.02 C520.74,370.02 518.88,370.42 518.12,370.90 C516.35,372.03 517.55,374.00 520.01,374.00 C524.02,374.00 526.85,376.28 528.86,381.12 ZM 657.56 155.40 C658.47,159.01 659.27,158.67 661.71,153.66 C663.69,149.57 664.95,148.65 671.25,146.63 C673.87,145.78 673.36,144.32 670.22,143.69 C666.17,142.88 662.14,139.33 661.22,135.76 C660.00,131.07 658.67,131.44 656.70,137.00 C655.50,140.35 654.35,142.00 653.21,142.01 C649.93,142.02 643.95,144.12 644.53,145.05 C644.86,145.58 647.10,146.50 649.51,147.11 C654.05,148.25 656.37,150.64 657.56,155.40 ZM 711.03 281.53 C709.95,282.62 708.46,285.24 707.73,287.37 L 706.39 291.24 L 705.15 287.12 C703.59,281.91 701.06,279.56 695.27,277.93 L 690.67 276.65 L 696.05 274.90 C702.05,272.94 703.55,271.39 705.12,265.54 L 706.21 261.52 L 708.03 266.32 C710.48,272.78 711.29,273.58 716.78,274.99 L 721.50 276.20 L 717.24 277.88 C714.90,278.81 712.10,280.45 711.03,281.53 ZM 638.01 259.53 C639.22,262.72 640.61,262.68 641.43,259.43 C641.85,257.75 643.28,256.36 645.58,255.40 C649.16,253.91 649.39,252.00 645.98,252.00 C644.07,252.00 643.13,251.22 640.54,247.50 C639.19,245.55 639.12,245.57 638.09,248.28 C637.51,249.80 636.24,251.30 635.27,251.61 C629.45,253.45 629.31,253.72 633.29,255.43 C635.49,256.37 637.46,258.09 638.01,259.53 ZM 601.00 266.00 C602.10,267.10 603.90,268.00 605.00,268.00 C607.48,268.00 611.00,264.61 611.00,262.22 C611.00,256.61 603.66,253.79 600.56,258.22 C598.46,261.21 598.60,263.60 601.00,266.00 ZM 577.45 352.55 C580.34,355.43 580.84,355.50 583.78,353.44 C586.26,351.71 586.86,346.26 584.80,344.20 C581.89,341.29 575.00,344.10 575.00,348.20 C575.00,349.24 576.10,351.20 577.45,352.55 ZM 630.65 310.17 C633.98,313.84 640.00,311.18 640.00,306.05 C640.00,302.56 638.30,301.00 634.50,301.00 C632.79,301.00 630.86,301.54 630.20,302.20 C628.48,303.92 628.72,308.03 630.65,310.17 ZM 533.57 305.43 C535.99,307.85 539.71,307.37 541.67,304.38 C543.20,302.04 543.23,301.50 541.91,299.13 C540.11,295.93 536.51,295.23 533.92,297.57 C531.59,299.68 531.43,303.29 533.57,305.43 ZM 592.75 328.92 C595.27,330.39 597.09,330.23 599.17,328.35 C601.73,326.03 601.45,323.34 598.46,321.38 C596.42,320.05 595.43,319.94 593.46,320.84 C590.45,322.21 590.01,327.32 592.75,328.92 ZM 698.20 202.80 C698.86,203.46 700.38,204.00 701.58,204.00 C706.78,204.00 707.82,195.77 702.69,195.18 C701.14,195.00 699.23,195.39 698.44,196.05 C696.69,197.50 696.56,201.16 698.20,202.80 ZM 659.86 239.06 C662.72,241.41 663.40,241.45 665.43,239.43 C668.63,236.22 666.44,230.38 662.33,231.17 C661.36,231.36 659.88,232.78 659.03,234.32 C657.58,236.97 657.63,237.23 659.86,239.06 ZM 567.20 361.80 C569.81,364.41 573.00,362.62 573.00,358.53 C573.00,356.65 570.19,355.83 567.93,357.04 C565.73,358.22 565.45,360.05 567.20,361.80 ZM 575.04 286.07 C576.21,288.27 578.05,288.55 579.80,286.80 C580.92,285.68 581.52,282.00 580.58,282.00 C580.35,282.00 579.51,281.75 578.71,281.44 C576.36,280.54 573.80,283.76 575.04,286.07 ZM 693.71 180.38 C694.10,180.77 695.34,180.95 696.46,180.79 C697.89,180.59 698.50,179.75 698.50,178.00 C698.50,176.02 697.93,175.43 695.75,175.18 C693.43,174.92 693.00,175.24 693.00,177.27 C693.00,178.59 693.32,179.99 693.71,180.38 ZM 621.71 246.38 C623.02,247.69 626.48,246.52 626.83,244.64 C627.32,242.10 625.63,240.67 623.10,241.47 C621.07,242.11 620.27,244.93 621.71,246.38 ZM 654.39 299.57 C654.75,300.51 655.89,301.01 657.25,300.82 C658.90,300.59 659.50,299.83 659.50,298.00 C659.50,296.17 658.90,295.41 657.25,295.18 C654.79,294.83 653.39,296.98 654.39,299.57 ZM 529.04 329.54 C530.64,331.47 533.63,331.40 534.40,329.41 C535.26,327.16 534.27,326.00 531.50,326.00 C528.55,326.00 527.43,327.61 529.04,329.54 ZM 709.99 239.49 C711.79,241.66 714.43,240.97 714.82,238.24 C715.23,235.36 712.40,234.17 710.26,236.31 C708.93,237.64 708.89,238.16 709.99,239.49 ZM 661.71 219.38 C663.15,220.82 666.50,219.51 666.50,217.50 C666.50,216.06 665.73,215.41 663.75,215.18 C661.60,214.94 661.00,215.28 661.00,216.77 C661.00,217.81 661.32,218.99 661.71,219.38 ZM 630.71 328.38 C632.15,329.82 635.50,328.51 635.50,326.50 C635.50,325.06 634.73,324.41 632.75,324.18 C630.60,323.94 630.00,324.28 630.00,325.77 C630.00,326.81 630.32,327.99 630.71,328.38 Z" fill="rgb(24,23,23)"/>
<path d="M 546.50 1020.50 C456.27,1026.86 362.76,1008.00 282.50,967.25 C276.45,964.18 270.15,961.00 268.50,960.18 C260.27,956.10 232.93,938.81 217.50,927.93 C178.75,900.61 137.15,860.33 106.55,820.50 C98.85,810.47 85.39,791.29 81.51,784.81 C80.95,783.89 77.53,778.26 73.90,772.31 C26.59,694.75 1.12,597.02 3.34,501.50 C5.42,412.19 27.49,332.00 70.52,257.50 C79.21,242.46 80.16,240.96 89.39,227.50 C109.17,198.66 127.37,176.59 149.98,154.00 C227.93,76.11 320.95,28.05 428.50,10.10 C536.78,-7.97 650.20,9.79 747.44,60.03 C811.36,93.06 874.04,146.03 918.40,204.50 C930.75,220.77 954.00,255.36 954.00,257.44 C954.00,257.70 955.34,260.19 956.98,262.97 C960.73,269.32 972.68,292.93 977.50,303.50 C992.36,336.06 1003.91,372.31 1011.44,410.00 C1029.38,499.85 1023.78,588.88 994.63,677.25 C985.85,703.87 966.09,747.18 952.54,769.50 C917.44,827.36 877.37,872.95 825.50,914.07 C811.15,925.44 784.55,943.66 771.88,950.79 C770.02,951.84 764.00,955.30 758.50,958.48 C725.27,977.70 677.42,996.51 636.50,1006.42 C623.18,1009.65 621.44,1010.03 609.00,1012.46 C589.20,1016.33 569.16,1018.91 546.50,1020.50 ZM 563.58 991.61 C607.62,986.38 649.61,976.03 688.05,960.93 C694.95,958.22 701.08,956.00 701.67,956.00 C701.93,956.00 702.42,955.88 703.10,955.65 C693.86,959.61 684.21,963.62 681.50,964.63 C676.59,966.47 676.55,966.51 679.55,967.00 C683.48,967.64 688.00,971.24 688.00,973.73 C688.00,974.79 688.30,975.97 688.67,976.33 C692.44,980.11 734.59,963.25 759.50,948.00 C763.09,945.80 766.27,944.00 766.57,944.00 C767.53,944.00 794.37,926.71 800.00,922.47 C803.03,920.19 810.87,914.31 817.43,909.41 C830.12,899.94 851.35,879.57 856.75,871.70 C859.86,867.16 861.10,863.20 859.00,864.50 C857.78,865.25 857.66,862.78 858.85,861.45 C860.23,859.91 862.29,851.20 861.66,849.57 C861.35,848.74 861.52,847.80 862.04,847.47 C862.57,847.15 863.00,846.43 863.00,845.87 C863.00,845.31 856.59,850.94 848.75,858.38 C820.37,885.32 790.77,908.04 759.58,926.78 C781.79,913.21 807.02,895.27 819.99,883.52 C823.65,880.21 832.18,872.55 838.94,866.50 C853.33,853.63 869.39,836.50 885.64,816.71 C944.74,744.69 981.02,659.14 991.58,566.89 C994.13,544.62 994.65,492.93 992.55,469.87 C988.10,420.90 977.82,377.12 960.53,333.50 C954.95,319.41 940.27,288.73 932.85,275.67 C918.70,250.73 893.85,215.98 874.44,194.00 C861.13,178.92 834.60,152.99 819.53,140.13 C830.88,149.46 842.26,159.63 854.50,171.34 C862.17,178.68 864.70,180.75 861.97,177.46 C861.25,176.59 860.65,173.08 860.60,169.39 C860.52,164.28 860.12,162.65 858.75,161.88 C856.67,160.72 856.38,158.55 858.40,159.32 C859.32,159.68 859.69,159.28 859.48,158.18 C859.30,157.26 859.12,155.93 859.08,155.23 C859.00,154.00 853.27,147.46 844.00,138.02 C826.89,120.60 790.69,93.98 762.47,78.07 C756.44,74.67 750.38,71.21 749.00,70.38 C746.63,68.95 740.04,65.75 721.20,56.91 C716.63,54.76 710.56,52.28 707.70,51.40 C704.84,50.51 700.70,49.19 698.50,48.47 C691.97,46.31 688.28,45.96 687.10,47.38 C686.50,48.10 686.30,48.96 686.64,49.31 C686.98,49.65 686.48,51.58 685.52,53.59 C684.09,56.62 684.02,57.40 685.14,58.11 C685.89,58.58 686.01,58.98 685.42,58.98 C684.82,58.99 684.02,58.69 683.65,58.31 C682.77,57.43 679.00,57.14 679.00,57.95 C679.00,58.29 686.69,61.84 696.12,65.87 C692.99,64.65 689.92,63.50 686.91,62.45 C639.41,45.83 614.36,39.43 576.00,34.11 C536.13,28.57 486.17,28.75 444.50,34.58 C395.98,41.36 349.54,55.27 306.25,75.69 C319.29,69.28 332.11,63.33 340.69,59.85 C347.13,57.24 349.30,56.02 347.00,56.30 C345.08,56.54 342.94,56.53 342.25,56.28 C340.33,55.59 340.77,52.20 342.92,51.04 C345.97,49.41 344.25,44.60 340.45,44.16 C332.58,43.25 299.15,57.04 269.86,73.29 C247.34,85.79 235.53,93.32 217.00,107.01 C198.49,120.68 169.83,146.23 166.12,152.38 C163.82,156.17 162.55,160.10 163.67,159.91 C165.42,159.60 166.09,160.04 165.46,161.07 C165.03,161.76 164.14,161.54 162.90,160.41 C161.36,159.01 161.00,158.96 161.00,160.15 C161.00,160.95 161.39,162.03 161.87,162.55 C163.60,164.44 163.93,170.81 162.36,172.12 C161.53,172.80 161.06,174.12 161.30,175.04 C161.54,175.96 161.27,177.57 160.70,178.61 C160.13,179.65 164.92,175.45 171.36,169.28 C177.80,163.11 186.61,155.01 190.95,151.28 C198.67,144.64 208.23,137.06 218.29,129.52 C187.22,153.47 158.74,181.44 133.40,213.10 C122.39,226.85 118.93,231.60 107.90,248.00 C89.99,274.67 70.47,312.74 59.47,342.50 C44.46,383.09 35.62,422.60 31.35,468.25 C29.38,489.32 29.12,533.99 30.86,553.00 C39.39,646.10 71.46,729.18 127.55,803.49 C146.27,828.28 166.95,850.74 190.22,871.46 C186.61,868.31 183.73,866.00 183.36,866.00 C182.90,866.00 177.40,860.94 171.13,854.75 C159.97,843.73 158.77,842.95 163.90,850.00 C166.41,853.45 166.41,853.47 164.08,851.50 L 161.71 849.50 L 162.77 851.53 C163.89,853.67 163.38,860.90 162.01,862.35 C160.43,864.01 166.26,872.85 174.38,881.12 C197.13,904.27 229.74,928.68 264.07,948.27 C291.59,963.97 329.31,980.38 341.50,981.95 C344.80,982.38 347.73,982.78 348.00,982.85 C348.27,982.91 349.16,982.55 349.97,982.04 C351.22,981.25 351.11,980.75 349.22,978.74 C348.00,977.44 347.00,976.07 347.00,975.71 C347.00,975.34 348.81,974.17 351.01,973.11 C354.25,971.54 355.71,971.36 358.57,972.15 C360.52,972.68 362.81,972.98 363.67,972.81 C364.53,972.64 358.54,970.08 350.36,967.12 C343.57,964.67 336.98,962.14 330.54,959.53 C343.85,964.86 357.35,969.48 371.00,973.40 C405.64,983.34 436.87,989.37 467.00,991.95 C473.88,992.54 481.08,993.20 483.00,993.41 C491.78,994.40 551.27,993.07 563.58,991.61 ZM 422.59 739.56 C421.18,737.16 418.00,733.41 415.52,731.22 C413.03,729.04 411.00,726.97 411.00,726.62 C411.00,726.28 414.61,726.00 419.02,726.00 C428.21,726.00 435.43,728.13 442.55,732.93 C447.29,736.13 447.36,735.79 443.16,730.20 C439.99,725.97 434.14,722.58 426.25,720.40 C422.81,719.45 420.00,718.36 420.00,717.97 C420.00,716.30 439.35,710.67 454.46,707.95 C460.50,706.86 461.09,706.57 458.96,705.76 C457.37,705.15 452.31,705.24 444.70,706.02 C438.20,706.68 432.67,707.00 432.39,706.72 C432.11,706.44 434.72,704.51 438.19,702.43 C446.98,697.16 464.62,685.05 476.50,676.15 C497.78,660.19 523.06,637.23 518.00,638.45 C516.62,638.78 509.03,639.34 501.11,639.68 C489.30,640.20 486.81,640.08 487.18,638.97 C487.42,638.23 488.95,637.20 490.56,636.68 C496.66,634.72 521.78,622.20 528.52,617.75 C541.44,609.24 552.21,597.55 563.15,579.80 C557.44,589.51 552.39,597.08 548.75,601.29 C544.11,606.64 530.00,619.00 528.53,619.00 C528.18,619.00 526.24,620.12 524.21,621.50 C521.67,623.23 521.10,624.00 522.35,624.00 C523.35,624.00 526.53,622.42 529.43,620.50 C532.33,618.58 535.17,617.00 535.74,617.00 C535.77,617.00 535.80,617.00 535.83,616.99 C528.45,622.67 520.14,627.46 510.20,632.08 L 501.50 636.14 L 509.00 635.55 C513.12,635.23 519.10,634.47 522.28,633.85 C525.46,633.23 528.38,633.06 528.78,633.46 C529.38,634.07 521.92,641.73 512.88,650.23 C521.33,641.72 527.72,634.00 525.58,634.00 C524.07,634.00 522.00,635.41 522.00,636.44 C522.00,638.37 505.03,654.36 485.70,670.61 C483.66,672.32 482.00,673.96 482.00,674.25 C482.00,675.25 486.99,672.33 492.48,668.30 C492.05,668.65 491.63,668.99 491.22,669.31 C478.23,679.60 460.67,692.23 451.56,697.84 L 445.63 701.50 L 456.56 702.13 C466.44,702.70 479.62,705.71 482.29,708.01 C482.73,708.38 478.01,708.97 471.79,709.30 C459.68,709.96 449.83,711.60 436.81,715.11 L 428.64 717.32 L 433.69 719.54 C439.43,722.08 445.99,727.63 449.00,732.50 C451.33,736.27 455.24,747.09 454.53,747.80 C454.27,748.06 452.02,746.01 449.53,743.24 C447.04,740.48 442.87,736.85 440.25,735.18 C435.67,732.26 425.53,729.00 421.04,729.00 L 418.86 729.00 L 421.18 732.09 C428.04,741.23 429.67,747.11 428.07,757.04 C426.88,764.41 425.39,766.66 424.52,762.39 C423.02,755.06 420.76,748.99 417.96,744.76 C414.33,739.27 406.59,734.02 401.04,733.28 C397.36,732.78 396.96,732.97 395.94,735.62 C395.42,736.97 395.04,738.10 394.81,739.08 C394.99,736.96 395.49,734.30 395.96,733.00 C396.45,731.62 397.14,728.73 397.51,726.56 C398.10,723.00 398.00,722.75 396.54,723.97 C395.64,724.71 395.11,725.84 395.35,726.48 C395.60,727.12 394.85,728.23 393.70,728.96 C391.83,730.12 391.42,730.00 390.09,727.89 C389.26,726.57 385.98,722.95 382.79,719.83 C378.27,715.40 377.00,713.50 377.00,711.14 C377.00,709.48 376.58,707.86 376.08,707.55 C375.23,707.02 371.81,714.78 370.81,719.50 C370.57,720.60 369.91,721.41 369.33,721.30 C368.76,721.18 368.06,723.38 367.74,726.23 C367.62,725.57 367.34,724.94 366.90,724.17 C364.53,719.99 362.79,719.46 355.54,720.70 C349.62,721.71 344.82,723.92 338.25,728.63 C334.21,731.53 335.88,728.25 341.57,722.10 C344.87,718.53 349.21,715.10 352.25,713.66 L 357.37 711.22 L 351.94 708.42 C347.50,706.12 345.17,705.60 339.26,705.55 C335.06,705.52 332.14,705.09 332.33,704.53 C332.50,704.00 335.31,702.49 338.57,701.17 C343.36,699.24 345.70,698.88 350.75,699.28 C354.19,699.55 357.00,699.59 357.00,699.37 C357.00,699.15 355.05,694.79 352.66,689.69 C346.94,677.44 340.57,666.64 336.26,661.87 C329.23,654.09 338.65,658.57 347.81,667.37 L 354.12 673.43 L 353.31 665.47 C351.67,649.32 353.06,623.45 355.95,616.50 C356.20,615.89 356.67,614.43 357.21,612.65 C356.95,613.86 356.74,614.99 356.61,616.00 C355.23,626.42 354.95,628.98 354.17,638.50 C353.73,644.00 353.60,651.20 353.90,654.50 C354.32,659.10 354.58,657.13 355.02,646.00 C355.34,638.03 356.10,630.60 356.71,629.50 C357.06,628.86 357.56,627.24 358.03,625.23 C356.07,638.68 356.36,662.56 358.75,676.75 C359.79,682.94 360.51,688.00 360.33,688.00 C360.16,688.00 357.73,684.85 354.93,681.00 C352.13,677.15 349.64,674.00 349.41,674.00 C349.17,674.00 350.29,676.62 351.91,679.81 C356.82,689.55 362.96,705.00 361.92,705.00 C361.38,705.00 359.32,704.33 357.35,703.50 C355.37,702.67 351.90,702.02 349.63,702.05 L 345.50 702.10 L 351.00 704.17 C355.93,706.02 363.00,711.28 363.00,713.08 C363.00,713.47 361.54,714.07 359.75,714.43 C357.96,714.79 355.15,715.71 353.50,716.47 C350.65,717.78 350.81,717.82 356.50,717.31 C360.69,716.93 363.61,717.23 366.18,718.30 L 369.85 719.84 L 371.43 716.52 C372.29,714.69 373.00,712.52 373.00,711.69 C373.00,709.25 382.49,685.01 391.28,665.00 C401.94,640.71 412.11,621.00 422.29,604.91 C423.15,603.54 424.86,600.74 426.84,597.47 C422.87,604.19 419.44,610.20 417.58,613.82 C415.90,617.09 415.91,617.12 417.92,616.04 C419.63,615.13 420.33,615.37 422.16,617.47 C423.37,618.86 424.90,620.00 425.56,620.00 C426.96,620.00 434.00,627.52 434.00,629.00 C434.00,631.75 435.56,629.17 448.09,605.78 C454.83,593.19 461.40,581.62 468.30,570.23 C458.10,587.29 448.45,605.00 439.12,623.66 C422.94,656.04 416.25,672.18 405.44,704.92 C401.35,717.31 398.00,727.71 398.00,728.04 C398.00,728.37 400.36,729.40 403.25,730.33 C410.23,732.58 417.26,737.90 421.25,743.96 C424.24,748.49 424.53,748.69 424.82,746.41 C425.00,745.03 424.00,741.97 422.59,739.56 ZM 554.45 451.38 C554.12,452.55 563.50,443.60 575.30,431.50 C587.10,419.40 596.34,409.34 595.84,409.15 C595.65,409.08 595.03,409.37 594.08,409.95 C595.07,409.35 595.74,409.00 595.98,409.00 C596.69,409.00 590.58,415.87 582.39,424.27 C552.79,454.62 527.58,484.00 505.24,514.50 C514.54,500.98 519.84,493.00 519.49,493.00 C519.27,493.00 517.96,494.13 516.59,495.50 C514.05,498.04 512.71,498.44 507.75,498.16 C504.36,497.96 504.09,495.42 507.07,491.63 C508.21,490.19 508.74,489.00 508.24,489.00 C505.50,489.00 474.59,526.91 455.06,553.68 C463.50,541.84 472.71,529.85 482.64,517.78 C488.89,510.20 494.00,503.72 494.00,503.40 C494.00,500.63 561.38,432.00 564.09,432.00 C564.75,432.00 567.58,430.05 570.39,427.67 C576.90,422.16 587.47,414.26 592.79,410.77 C583.62,416.83 556.97,438.05 551.21,444.25 L 548.91 446.72 L 551.98 447.99 C554.42,449.00 554.93,449.70 554.45,451.38 ZM 703.71 292.19 C701.51,284.25 699.66,282.33 691.69,279.66 C687.94,278.40 684.93,276.95 684.99,276.44 C685.06,275.92 688.12,274.67 691.80,273.66 C695.49,272.65 699.06,271.29 699.74,270.64 C700.42,269.98 701.99,266.38 703.24,262.62 C704.48,258.86 705.95,255.80 706.50,255.83 C707.05,255.85 708.33,258.71 709.33,262.19 C710.34,265.66 711.73,269.08 712.42,269.80 C713.10,270.51 716.69,272.11 720.39,273.36 C724.10,274.61 727.21,276.01 727.31,276.47 C727.42,276.93 724.37,278.37 720.55,279.66 C716.72,280.95 713.18,282.42 712.68,282.92 C712.18,283.42 710.78,286.88 709.57,290.60 C708.36,294.33 706.92,297.53 706.36,297.71 C705.80,297.90 704.61,295.41 703.71,292.19 ZM 683.68 362.09 C685.18,356.24 685.53,351.02 684.13,352.55 C683.66,353.07 681.55,358.90 679.46,365.50 C678.74,367.79 677.86,370.36 676.87,373.11 C677.60,371.04 678.24,369.14 678.75,367.50 C682.57,355.20 690.50,322.17 689.81,321.47 C689.53,321.19 686.42,322.26 682.90,323.84 C679.38,325.42 673.12,328.19 669.00,330.00 C663.01,332.62 654.65,336.60 645.37,341.19 C656.07,335.76 664.58,331.25 665.50,330.50 C667.43,328.91 667.40,328.87 664.38,329.38 C661.59,329.84 655.50,332.46 640.97,339.56 C669.60,325.43 682.81,319.31 691.89,315.85 C694.28,314.94 694.28,314.95 693.63,320.51 C692.35,331.38 688.67,346.38 683.68,362.09 ZM 711.03 281.53 C712.10,280.45 714.90,278.81 717.24,277.88 L 721.50 276.20 L 716.78 274.99 C711.29,273.58 710.48,272.78 708.03,266.32 L 706.21 261.52 L 705.12 265.54 C703.55,271.39 702.05,272.94 696.05,274.90 L 690.67 276.65 L 695.27 277.93 C701.06,279.56 703.59,281.91 705.15,287.12 L 706.39 291.24 L 707.73 287.37 C708.46,285.24 709.95,282.62 711.03,281.53 ZM 578.67 505.34 C579.03,505.70 580.27,505.99 581.42,505.98 C583.00,505.97 583.17,505.76 582.11,505.09 C581.08,504.44 581.86,503.68 585.11,502.16 C586.04,501.72 587.65,500.92 589.63,499.92 C588.65,500.45 587.80,500.92 587.11,501.31 L 582.72 503.82 L 592.86 504.54 C598.44,504.93 603.00,505.51 603.00,505.82 C603.00,506.69 587.64,539.18 578.02,558.68 C578.54,557.47 579.00,556.34 579.38,555.29 C580.16,553.21 582.86,546.82 585.40,541.09 C587.94,535.37 589.88,530.54 589.70,530.36 C589.51,530.18 584.90,538.90 579.43,549.74 C578.07,552.45 576.70,555.12 575.34,557.72 C578.56,551.33 581.00,546.05 581.00,545.44 C581.00,544.74 584.83,536.23 589.50,526.53 C594.17,516.83 598.00,508.74 598.00,508.56 C598.00,508.39 592.83,507.92 586.50,507.52 C580.17,507.13 575.00,506.45 575.00,506.02 C575.00,504.55 577.96,502.63 593.79,494.46 C582.61,500.42 577.45,504.12 578.67,505.34 ZM 348.64 853.75 C347.25,859.71 347.62,861.47 349.71,858.75 C350.04,858.32 350.90,855.35 351.93,851.17 C351.32,853.81 350.65,856.74 349.91,860.00 C344.78,882.49 343.43,886.90 342.11,885.40 C341.67,884.91 339.63,873.70 337.56,860.50 C334.41,840.32 332.78,830.65 330.89,821.51 C331.69,825.20 332.53,829.07 333.14,831.99 C335.08,841.18 335.60,842.79 336.36,841.92 C337.04,841.14 335.52,829.97 333.62,820.80 C336.59,834.52 340.34,855.82 343.09,874.90 C343.19,875.58 345.23,867.30 350.50,844.92 L 353.39 832.64 L 352.12 838.39 C351.01,843.40 349.45,850.31 348.64,853.75 ZM 404.89 761.75 C405.46,758.86 406.05,754.94 406.21,753.04 L 406.50 749.58 L 400.00 747.84 C379.18,742.27 351.79,735.87 351.22,736.45 C351.01,736.66 349.95,740.31 348.86,744.57 C347.31,750.59 347.15,752.47 348.12,753.07 C349.08,753.67 369.25,758.90 384.84,762.74 C368.73,758.85 347.99,753.59 346.76,752.93 C344.44,751.68 344.00,751.75 344.00,753.38 C344.00,754.49 346.01,755.65 352.23,757.54 C347.24,756.22 343.96,755.27 343.73,755.06 C343.09,754.48 347.45,733.21 348.41,732.26 C348.58,732.09 351.59,732.68 355.11,733.56 C365.22,736.11 365.30,736.09 366.90,731.07 C367.06,730.56 367.20,730.10 367.32,729.68 C366.46,735.21 365.05,735.97 360.23,735.34 C351.41,734.18 355.01,735.54 378.00,742.04 C381.58,743.05 387.20,744.36 390.50,744.95 C393.80,745.54 398.30,746.41 400.50,746.90 C405.93,748.08 406.45,748.12 405.61,747.25 C405.21,746.84 402.54,745.79 399.69,744.93 L 394.50 743.36 L 394.64 741.44 C395.04,743.79 397.72,744.60 404.00,745.45 C407.14,745.88 408.96,746.10 409.79,747.12 C410.92,748.50 410.27,751.34 408.70,758.12 L 408.62 758.48 C408.44,759.27 408.25,760.05 408.07,760.80 C408.57,758.30 408.93,755.90 408.93,754.50 C408.94,751.78 408.81,751.66 407.59,753.27 C406.86,754.24 405.72,757.73 405.08,761.02 C404.43,764.31 403.81,767.00 403.70,767.00 C403.56,767.00 403.24,766.95 402.77,766.87 C403.42,766.74 404.34,764.56 404.89,761.75 ZM 697.18 244.43 C694.45,250.27 684.95,262.00 682.96,262.00 C683.38,261.99 684.51,261.09 685.50,260.00 C686.50,258.90 686.95,258.00 686.52,258.00 C686.09,258.00 686.94,257.05 688.42,255.89 C689.90,254.72 690.87,253.53 690.58,253.24 C690.29,252.95 687.68,254.70 684.77,257.13 C683.39,258.29 682.06,259.38 680.73,260.43 C683.15,258.37 685.23,256.27 687.22,254.00 C693.76,246.52 696.26,240.95 696.35,233.62 C696.44,226.00 695.85,222.00 694.62,222.00 C694.09,222.00 693.94,221.72 694.28,221.38 C694.99,220.68 687.51,212.92 684.25,210.63 C685.21,211.23 686.66,212.41 688.55,214.15 C691.39,216.77 692.81,217.60 692.38,216.40 C691.47,213.82 688.23,210.57 684.32,207.85 C687.86,210.06 691.15,212.54 692.85,214.48 C697.61,219.91 699.26,223.86 699.78,231.17 C700.20,237.10 699.91,238.59 697.18,244.43 ZM 347.02 884.75 C347.04,883.51 348.64,876.42 350.59,869.00 C352.54,861.58 355.69,849.46 357.58,842.07 C359.46,834.73 361.11,828.64 361.26,828.46 C361.11,828.64 359.43,835.07 357.51,842.82 C353.95,857.19 353.11,862.83 355.24,858.00 C357.11,853.74 358.12,851.18 359.15,847.57 C358.86,848.73 358.55,849.98 358.22,851.30 C355.33,862.96 352.69,873.62 352.35,875.00 C351.68,877.68 352.20,877.44 355.78,872.51 C354.58,874.27 353.53,875.93 353.10,876.75 C350.74,881.28 353.62,878.79 357.74,872.73 C360.07,869.30 364.27,863.58 367.07,860.00 C368.77,857.83 371.79,853.93 375.03,849.71 C369.07,857.78 362.68,866.74 356.88,875.25 C355.45,877.35 354.05,879.33 352.81,881.05 C353.08,880.18 352.42,880.10 350.82,880.35 C348.82,880.65 347.29,882.80 347.08,885.58 C347.04,885.32 347.02,885.04 347.02,884.75 ZM 601.00 266.00 C598.60,263.60 598.46,261.21 600.56,258.22 C603.66,253.79 611.00,256.61 611.00,262.22 C611.00,264.61 607.48,268.00 605.00,268.00 C603.90,268.00 602.10,267.10 601.00,266.00 ZM 533.57 305.43 C531.43,303.29 531.59,299.68 533.92,297.57 C536.51,295.23 540.11,295.93 541.91,299.13 C543.23,301.50 543.20,302.04 541.67,304.38 C539.71,307.37 535.99,307.85 533.57,305.43 ZM 528.86 381.12 C526.85,376.28 524.02,374.00 520.01,374.00 C517.55,374.00 516.35,372.03 518.12,370.90 C518.88,370.42 520.74,370.02 522.25,370.02 C523.22,370.01 524.11,369.81 524.92,369.44 C524.50,369.64 524.04,369.82 523.54,369.99 C519.06,371.47 519.07,372.54 523.56,374.02 C526.04,374.84 527.62,376.23 528.75,378.60 C530.59,382.47 532.55,382.99 533.54,379.88 C533.91,378.71 535.76,376.26 537.64,374.43 L 541.08 371.09 L 538.07 369.54 C536.24,368.59 534.36,366.35 533.24,363.79 L 531.41 359.60 L 529.24 364.21 C528.08,366.68 527.12,368.05 525.74,368.97 C527.58,367.72 528.84,365.38 529.36,362.15 C530.23,356.68 532.28,356.85 533.79,362.52 C534.99,366.99 536.61,368.34 543.25,370.40 C546.15,371.29 545.25,372.63 540.51,374.44 C536.55,375.96 535.82,376.73 534.28,381.08 C533.32,383.78 532.16,386.00 531.71,386.00 C531.26,386.00 529.98,383.81 528.86,381.12 ZM 698.20 202.80 C696.56,201.16 696.69,197.50 698.44,196.05 C699.23,195.39 701.14,195.00 702.69,195.18 C707.82,195.77 706.78,204.00 701.58,204.00 C700.38,204.00 698.86,203.46 698.20,202.80 ZM 683.46 237.39 C682.89,238.78 683.05,239.15 684.09,238.81 C685.33,238.41 686.38,236.90 687.05,234.83 C685.95,238.91 683.82,242.68 680.20,246.49 C680.73,245.65 681.00,244.89 681.00,244.21 C681.00,241.59 680.98,241.60 676.75,245.60 C667.38,254.47 657.77,260.03 628.50,273.52 C615.61,279.47 605.38,284.37 597.07,288.70 C605.37,284.37 615.58,279.48 628.44,273.54 C662.12,258.01 671.36,252.08 681.17,239.66 C682.91,237.47 683.87,236.10 684.39,234.62 C684.00,235.89 683.66,236.91 683.46,237.39 ZM 682.95 216.25 C684.68,218.86 686.30,221.00 686.55,221.00 C687.11,221.00 687.21,220.22 686.97,219.07 C687.64,221.50 688.00,224.21 688.00,227.00 C688.00,228.32 687.94,229.59 687.80,230.83 C687.86,229.99 687.86,229.12 687.80,228.25 L 687.50 223.50 L 685.87 229.50 C685.46,231.01 685.01,232.57 684.60,233.92 C684.93,232.66 685.00,231.22 685.00,229.09 C685.00,219.93 682.56,214.36 675.58,207.62 L 673.27 205.38 L 674.66 206.68 C677.49,209.33 681.23,213.64 682.95,216.25 ZM 492.00 637.29 C491.10,637.62 491.53,637.87 493.05,637.92 C494.45,637.96 496.03,637.61 496.55,637.13 C497.07,636.65 499.64,635.47 502.26,634.49 C506.36,632.97 512.46,629.00 510.70,629.00 C509.46,629.00 505.00,631.34 505.00,631.99 C505.00,632.36 504.44,632.67 503.75,632.68 C503.06,632.69 500.48,633.60 498.00,634.72 C495.52,635.83 492.83,636.99 492.00,637.29 ZM 554.60 346.25 C554.85,345.39 555.11,344.54 555.40,343.70 C554.84,345.75 554.46,347.84 554.27,349.96 C553.97,353.23 553.45,355.82 553.12,355.71 C552.78,355.59 552.39,355.84 552.25,356.25 C551.73,357.80 552.03,359.26 553.52,361.86 C550.18,356.27 549.04,351.95 549.12,345.44 C549.27,347.13 549.60,348.76 550.11,350.30 L 551.50 354.50 L 552.07 344.00 C552.25,340.75 552.42,338.39 552.69,336.45 C552.46,338.14 552.32,340.14 552.20,342.75 C551.96,347.84 552.03,352.00 552.35,352.00 C552.68,352.00 553.69,349.41 554.60,346.25 ZM 590.50 189.06 C584.48,187.37 581.28,186.50 579.64,186.22 C581.94,185.22 587.40,183.57 598.50,180.44 C599.43,180.17 600.30,179.90 601.13,179.61 C599.51,180.24 597.65,180.90 595.50,181.59 C585.64,184.79 583.46,185.93 587.12,185.97 C588.84,185.99 592.79,184.98 596.92,183.64 C596.45,183.80 595.98,183.95 595.52,184.10 C587.99,186.52 586.02,187.49 587.52,188.05 C587.97,188.22 589.05,188.58 590.50,189.06 ZM 346.42 745.50 L 346.06 748.50 L 347.39 745.50 C349.08,741.70 350.14,735.00 349.05,735.00 C348.25,735.00 347.16,739.35 346.42,745.50 ZM 342.00 881.01 C342.00,885.85 344.44,884.13 344.81,879.04 C345.10,875.13 344.98,874.87 343.56,876.29 C342.70,877.15 342.00,879.28 342.00,881.01 ZM 359.83 603.22 C363.06,591.44 363.59,590.63 365.07,591.54 C365.58,591.86 366.01,593.10 366.01,594.31 C366.02,595.90 367.07,599.87 368.41,604.06 C368.02,602.90 367.63,601.71 367.24,600.50 C366.13,597.02 364.76,594.50 363.96,594.50 C363.16,594.50 361.43,598.43 359.83,603.22 ZM 652.26 148.09 C651.45,147.69 650.54,147.37 649.51,147.11 C647.10,146.50 644.86,145.58 644.53,145.05 C643.95,144.12 649.93,142.02 653.21,142.01 C653.27,142.01 653.34,142.00 653.40,141.99 C652.71,142.46 651.87,142.88 650.78,143.35 L 646.50 145.21 L 650.48 147.04 C651.08,147.31 651.68,147.67 652.26,148.09 ZM 601.44 263.89 C602.33,265.60 603.78,267.00 604.68,267.00 C606.08,267.00 606.04,266.75 604.40,265.25 C603.36,264.29 602.46,262.94 602.40,262.25 C602.12,258.81 602.00,258.60 600.91,259.69 C600.13,260.47 600.28,261.65 601.44,263.89 ZM 642.92 257.03 C644.85,253.13 644.89,252.56 643.51,251.14 C644.31,251.80 645.03,252.00 645.98,252.00 C649.39,252.00 649.16,253.91 645.58,255.40 C644.49,255.86 643.61,256.40 642.92,257.03 ZM 621.59 231.75 C621.41,231.06 620.68,228.02 619.98,225.00 C618.41,218.19 613.54,205.82 610.94,201.94 C613.58,205.86 618.54,218.48 620.15,225.40 C621.04,229.22 621.92,230.97 622.85,230.78 C623.65,230.62 625.86,225.42 628.12,218.40 C629.71,213.42 631.66,208.27 633.06,205.20 C631.59,208.45 629.48,214.14 627.72,219.70 C623.78,232.14 622.43,234.79 621.59,231.75 ZM 743.91 88.80 C760.06,97.61 775.18,107.14 790.96,118.31 C797.20,122.73 803.26,127.23 809.26,131.90 C788.36,115.84 765.89,101.07 743.91,88.80 ZM 635.35 251.58 C635.23,251.64 635.11,251.68 634.99,251.71 C632.43,252.38 632.45,254.17 635.04,255.79 C636.15,256.49 637.48,258.15 638.00,259.51 C637.44,258.07 635.47,256.37 633.29,255.43 C629.31,253.72 629.45,253.45 635.27,251.61 C635.29,251.60 635.32,251.59 635.35,251.58 ZM 668.00 328.06 C668.00,329.22 669.07,329.24 670.86,328.11 C671.80,327.51 671.88,327.04 671.11,326.57 C669.84,325.78 668.00,326.67 668.00,328.06 ZM 450.25 741.44 C450.94,742.19 451.62,742.68 451.77,742.54 C452.34,742.01 450.75,739.00 449.89,739.00 C448.65,739.00 448.78,739.84 450.25,741.44 ZM 620.50 291.96 C595.38,303.03 578.13,313.38 567.52,324.08 C577.88,313.26 594.49,303.42 620.50,291.96 ZM 222.00 897.66 C206.84,885.91 201.03,881.16 192.84,873.79 C192.71,873.67 192.57,873.55 192.44,873.43 C208.36,887.43 225.48,900.64 244.00,913.23 C235.48,907.43 225.57,900.42 222.00,897.66 ZM 628.47 349.69 C611.96,358.14 595.31,367.05 585.50,372.83 C582.16,374.80 579.24,376.54 576.66,378.09 C590.37,369.59 605.24,361.46 628.47,349.69 ZM 250.77 106.55 C256.03,103.07 261.01,99.91 265.50,97.23 C268.96,95.16 273.33,92.70 278.27,90.04 C268.93,95.23 259.76,100.74 250.77,106.55 ZM 360.73 841.38 C360.85,840.88 360.97,840.36 361.10,839.81 C362.97,831.82 363.73,830.03 365.46,829.60 C364.12,829.98 363.18,832.02 360.73,841.38 ZM 621.07 477.35 C622.88,474.76 625.23,471.30 627.65,467.62 C630.96,462.60 634.25,457.62 636.29,454.56 C634.55,457.19 631.98,461.13 629.47,465.00 C625.73,470.77 623.32,474.54 621.07,477.35 ZM 668.73 268.78 C659.06,274.62 645.90,280.77 620.50,291.96 C644.21,281.51 658.78,274.64 668.73,268.78 ZM 550.46 333.99 C551.97,328.12 554.87,322.94 559.95,316.56 C555.39,322.29 552.18,328.27 550.46,333.99 ZM 564.30 386.06 C558.41,390.35 555.94,393.53 552.23,399.29 C556.98,391.90 558.69,389.89 564.30,386.06 ZM 402.50 770.27 C401.40,770.06 398.25,769.25 395.50,768.48 C395.23,768.40 394.87,768.30 394.42,768.18 C396.65,768.73 398.46,769.18 399.50,769.45 C401.88,770.06 404.15,770.33 405.01,770.14 C404.43,770.38 403.41,770.45 402.50,770.27 ZM 624.56 477.76 C625.97,475.77 627.63,473.34 629.66,470.32 C632.36,466.31 634.98,462.32 637.51,458.36 C632.71,466.00 628.19,472.79 624.56,477.76 ZM 660.04 419.47 C663.71,412.37 667.07,405.37 670.14,398.48 C668.62,401.97 667.09,405.36 665.54,408.59 C663.91,411.98 662.05,415.64 660.04,419.47 ZM 578.27 187.13 C579.12,187.95 584.39,190.02 590.54,191.93 C583.96,189.89 578.44,187.81 578.27,187.30 C578.25,187.24 578.25,187.19 578.27,187.13 ZM 552.19 601.11 C549.26,604.64 546.25,607.86 543.08,610.82 C546.04,607.90 549.39,604.36 552.19,601.11 ZM 656.11 263.16 C646.88,268.14 635.18,273.73 620.43,280.37 C634.95,273.83 646.83,268.10 656.11,263.16 ZM 657.56 155.40 C657.36,154.59 657.13,153.85 656.85,153.18 C657.57,154.44 658.00,155.69 658.00,156.73 C658.00,156.77 658.00,156.80 658.00,156.83 C657.85,156.46 657.71,155.98 657.56,155.40 ZM 686.20 216.72 C685.77,215.70 685.20,214.62 684.53,213.64 C684.10,213.01 683.76,212.47 683.50,212.01 C684.57,213.25 685.48,214.87 686.20,216.72 ZM 674.96 203.04 C674.29,202.83 673.63,202.65 673.00,202.53 L 669.66 201.88 L 669.50 201.73 L 673.00 202.46 C673.58,202.58 674.24,202.77 674.96,203.04 ZM 639.34 261.71 C639.85,261.94 640.41,261.48 641.18,260.26 C640.68,261.72 640.02,262.20 639.34,261.71 ZM 394.53 825.08 L 398.03 821.24 L 398.07 821.34 L 394.68 824.92 C394.63,824.97 394.58,825.03 394.53,825.08 ZM 659.04 157.77 C659.71,157.25 660.66,155.83 661.71,153.66 C660.47,156.20 659.66,157.54 659.04,157.77 ZM 605.66 491.62 C609.74,489.54 613.47,487.71 615.32,486.90 C613.17,487.89 609.60,489.64 605.66,491.62 ZM 555.31 364.67 L 555.27 364.61 C556.61,366.52 557.62,367.42 558.11,367.29 C557.64,367.49 556.63,366.64 555.31,364.67 ZM 356.34 826.43 L 354.64 824.73 C355.27,825.36 355.79,825.68 356.15,826.14 C356.22,826.23 356.28,826.33 356.34,826.43 ZM 616.78 486.26 C617.44,485.91 618.09,485.47 618.79,484.84 C618.08,485.54 617.50,485.98 617.08,486.14 C617.00,486.17 616.90,486.21 616.78,486.26 ZM 432.38 588.21 C434.08,585.37 435.83,582.52 437.63,579.66 C435.91,582.43 434.14,585.32 432.38,588.21 ZM 608.29 175.77 C609.81,174.49 610.97,173.01 611.84,171.29 C610.94,173.06 609.86,174.49 608.29,175.77 ZM 604.95 488.72 C606.89,487.71 608.73,486.75 610.37,485.88 C608.82,486.73 607.03,487.66 604.95,488.72 ZM 641.01 248.16 C640.83,247.93 640.67,247.71 640.53,247.50 C639.19,245.56 639.12,245.58 638.06,248.35 C637.88,248.84 637.61,249.32 637.30,249.77 C637.62,249.30 637.89,248.79 638.09,248.28 C639.12,245.57 639.19,245.55 640.54,247.50 C640.70,247.73 640.86,247.95 641.01,248.16 ZM 373.86 617.00 C374.15,616.97 374.43,612.15 374.57,605.57 C374.43,612.17 374.15,617.00 373.87,617.00 ZM 330.98 809.66 L 332.03 813.89 C332.16,814.40 332.29,814.92 332.42,815.47 ZM 608.29 179.02 C608.48,178.91 608.66,178.80 608.82,178.69 C610.36,177.67 611.75,176.22 613.09,174.15 C611.75,176.22 610.36,177.68 608.82,178.70 C608.67,178.80 608.49,178.91 608.29,179.02 ZM 347.78 886.97 C347.90,886.96 348.04,886.91 348.19,886.84 C348.07,886.95 347.99,887.00 347.93,887.00 C347.88,887.00 347.83,886.99 347.78,886.97 ZM 360.33 865.92 C360.75,865.24 361.00,864.78 361.00,864.66 C361.00,864.79 360.75,865.25 360.33,865.92 Z" fill="rgb(207,165,76)"/>
<path d="M 287.74 939.64 C301.77,947.09 316.05,953.72 330.54,959.53 C336.98,962.14 343.57,964.67 350.36,967.12 C358.54,970.08 364.53,972.64 363.67,972.81 C362.81,972.98 360.52,972.68 358.57,972.15 C355.71,971.36 354.25,971.54 351.01,973.11 C348.81,974.17 347.00,975.34 347.00,975.71 C347.00,976.07 348.00,977.44 349.22,978.74 C351.11,980.75 351.22,981.25 349.97,982.04 C349.16,982.55 348.27,982.91 348.00,982.85 C347.73,982.78 344.80,982.38 341.50,981.95 C329.31,980.38 291.59,963.97 264.07,948.27 C229.74,928.68 197.13,904.27 174.38,881.12 C166.26,872.85 160.43,864.01 162.01,862.35 C163.38,860.90 163.89,853.67 162.77,851.53 L 161.71 849.50 L 164.08 851.50 C166.41,853.47 166.41,853.45 163.90,850.00 C158.77,842.95 159.97,843.73 171.13,854.75 C177.40,860.94 182.90,866.00 183.36,866.00 C183.73,866.00 186.61,868.31 190.22,871.46 L 190.22 871.46 C190.96,872.12 191.70,872.77 192.44,873.43 C192.57,873.55 192.71,873.67 192.84,873.79 C201.03,881.16 206.84,885.91 222.00,897.66 C225.57,900.42 235.48,907.43 244.00,913.23 L 244.02 913.24 L 244.02 913.24 C258.29,922.95 272.88,931.75 287.74,939.64 ZM 250.77 106.55 C239.66,113.74 228.82,121.40 218.29,129.52 C208.23,137.06 198.67,144.64 190.95,151.28 C186.61,155.01 177.80,163.11 171.36,169.28 C164.92,175.45 160.13,179.65 160.70,178.61 C161.27,177.57 161.54,175.96 161.30,175.04 C161.06,174.12 161.53,172.80 162.36,172.12 C163.93,170.81 163.60,164.44 161.87,162.55 C161.39,162.03 161.00,160.95 161.00,160.15 C161.00,158.96 161.36,159.01 162.90,160.41 C164.14,161.54 165.03,161.76 165.46,161.07 C166.09,160.04 165.42,159.60 163.67,159.91 C162.55,160.10 163.82,156.17 166.12,152.38 C169.83,146.23 198.49,120.68 217.00,107.01 C235.53,93.32 247.34,85.79 269.86,73.29 C299.15,57.04 332.58,43.25 340.45,44.16 C344.25,44.60 345.97,49.41 342.92,51.04 C340.77,52.20 340.33,55.59 342.25,56.28 C342.94,56.53 345.08,56.54 347.00,56.30 C349.30,56.02 347.13,57.24 340.69,59.85 C332.11,63.33 319.29,69.28 306.25,75.69 C296.77,80.16 287.44,84.95 278.27,90.04 C273.33,92.70 268.96,95.16 265.50,97.23 C261.01,99.91 256.03,103.07 250.77,106.55 ZM 743.91 88.80 C727.42,79.59 711.20,71.78 696.12,65.87 C686.69,61.84 679.00,58.29 679.00,57.95 C679.00,57.14 682.77,57.43 683.65,58.31 C684.02,58.69 684.82,58.99 685.42,58.98 C686.01,58.98 685.89,58.58 685.14,58.11 C684.02,57.40 684.09,56.62 685.52,53.59 C686.48,51.58 686.98,49.65 686.64,49.31 C686.30,48.96 686.50,48.10 687.10,47.38 C688.28,45.96 691.97,46.31 698.50,48.47 C700.70,49.19 704.84,50.51 707.70,51.40 C710.56,52.28 716.63,54.76 721.20,56.91 C740.04,65.75 746.63,68.95 749.00,70.38 C750.38,71.21 756.44,74.67 762.47,78.07 C790.69,93.98 826.89,120.60 844.00,138.02 C853.27,147.46 859.00,154.00 859.08,155.23 C859.12,155.93 859.30,157.26 859.48,158.18 C859.69,159.28 859.32,159.68 858.40,159.32 C856.38,158.55 856.67,160.72 858.75,161.88 C860.12,162.65 860.52,164.28 860.60,169.39 C860.65,173.08 861.25,176.59 861.97,177.46 C864.70,180.75 862.17,178.68 854.50,171.34 C842.26,159.63 830.88,149.46 819.53,140.13 C817.87,138.71 816.35,137.45 815.00,136.38 C813.10,134.88 811.19,133.39 809.26,131.90 C803.26,127.23 797.20,122.73 790.96,118.31 C775.18,107.14 760.06,97.61 743.91,88.80 ZM 746.00 934.73 C750.29,932.34 754.87,929.66 759.58,926.78 C790.77,908.04 820.37,885.32 848.75,858.38 C856.59,850.94 863.00,845.31 863.00,845.87 C863.00,846.43 862.57,847.15 862.04,847.47 C861.52,847.80 861.35,848.74 861.66,849.57 C862.29,851.20 860.23,859.91 858.85,861.45 C857.66,862.78 857.78,865.25 859.00,864.50 C861.10,863.20 859.86,867.16 856.75,871.70 C851.35,879.57 830.12,899.94 817.43,909.41 C810.87,914.31 803.03,920.19 800.00,922.47 C794.37,926.71 767.53,944.00 766.57,944.00 C766.27,944.00 763.09,945.80 759.50,948.00 C734.59,963.25 692.44,980.11 688.67,976.33 C688.30,975.97 688.00,974.79 688.00,973.73 C688.00,971.24 683.48,967.64 679.55,967.00 C676.55,966.51 676.59,966.47 681.50,964.63 C684.21,963.62 693.86,959.61 703.10,955.65 C709.24,953.61 731.11,943.00 746.00,934.73 ZM 432.38 588.21 C434.14,585.32 435.91,582.43 437.63,579.66 C443.01,571.09 448.83,562.42 455.06,553.68 C474.59,526.91 505.50,489.00 508.24,489.00 C508.74,489.00 508.21,490.19 507.07,491.63 C504.09,495.42 504.36,497.96 507.75,498.16 C512.71,498.44 514.05,498.04 516.59,495.50 C517.96,494.13 519.27,493.00 519.49,493.00 C519.84,493.00 514.54,500.98 505.24,514.50 C492.02,532.54 479.82,550.97 468.30,570.23 L 468.30 570.23 C461.40,581.62 454.83,593.19 448.09,605.78 C435.56,629.17 434.00,631.75 434.00,629.00 C434.00,627.52 426.96,620.00 425.56,620.00 C424.90,620.00 423.37,618.86 422.16,617.47 C420.33,615.37 419.63,615.13 417.92,616.04 C415.91,617.12 415.90,617.09 417.58,613.82 C419.44,610.20 422.87,604.19 426.84,597.47 L 426.84 597.47 C428.36,594.94 430.04,592.14 431.61,589.50 C431.87,589.07 432.12,588.64 432.38,588.21 ZM 359.83 603.22 C361.43,598.43 363.16,594.50 363.96,594.50 C364.76,594.50 366.13,597.02 367.24,600.50 C367.63,601.71 368.02,602.90 368.41,604.06 C370.41,610.29 373.05,617.00 373.86,617.00 L 373.86 617.00 L 373.87 617.00 C374.15,617.00 374.43,612.21 374.57,605.64 L 374.57 605.57 C374.60,604.04 374.63,602.43 374.64,600.75 C374.81,582.00 375.67,578.47 384.03,562.44 C397.27,537.06 414.67,513.70 438.91,488.75 C449.39,477.96 454.21,474.39 452.59,478.62 C452.25,479.51 451.68,485.66 451.32,492.28 C450.84,501.31 450.97,504.14 451.84,503.60 C452.48,503.21 453.00,502.24 453.00,501.45 C453.00,500.67 454.31,495.86 455.91,490.76 C457.52,485.67 460.02,477.45 461.47,472.50 C465.87,457.47 466.61,456.38 481.67,442.72 C499.93,426.15 532.40,400.06 533.45,401.11 C533.66,401.33 532.97,405.11 531.90,409.50 C529.85,417.98 527.99,433.00 529.00,433.00 C529.33,433.00 530.63,430.86 531.89,428.25 C535.84,420.06 548.68,397.74 552.68,392.12 C555.80,387.72 559.00,385.18 570.22,378.12 C577.77,373.38 588.68,366.80 594.46,363.50 C602.80,358.74 604.97,357.04 604.98,355.29 C605.01,352.21 608.72,350.29 610.74,352.31 C612.07,353.64 613.85,353.01 626.87,346.54 C631.95,344.02 636.64,341.70 640.97,339.56 C655.50,332.46 661.59,329.84 664.38,329.38 C667.40,328.87 667.43,328.91 665.50,330.50 C664.58,331.25 656.07,335.76 645.37,341.19 L 645.37 341.19 C639.95,343.87 634.22,346.75 628.47,349.69 C605.24,361.46 590.37,369.59 576.66,378.09 C571.22,381.37 567.31,383.86 564.30,386.06 C558.69,389.89 556.98,391.90 552.23,399.29 C548.97,404.36 544.59,411.65 542.50,415.50 C529.85,438.77 527.74,442.19 526.89,440.86 C525.58,438.79 525.87,422.30 527.35,415.25 C528.07,411.81 528.44,409.00 528.17,409.00 C527.18,409.00 502.23,428.67 499.00,432.00 C498.73,432.29 494.90,435.64 490.50,439.45 C486.10,443.27 479.44,449.34 475.71,452.94 C469.63,458.81 468.70,460.24 466.86,466.50 C461.20,485.78 459.37,491.40 455.30,502.00 C452.88,508.33 450.50,513.90 450.01,514.38 C448.50,515.90 447.73,508.35 448.19,496.44 C448.43,490.15 448.32,485.00 447.95,485.00 C446.33,485.00 428.05,504.71 416.87,518.50 C399.15,540.37 382.89,567.53 379.13,581.52 C378.55,583.71 378.02,594.83 377.96,606.24 C377.90,617.64 377.45,627.22 376.97,627.52 C375.69,628.31 370.49,618.77 367.29,609.75 C365.77,605.49 364.26,602.00 363.93,602.00 C363.04,602.00 360.24,612.63 358.36,623.21 C358.24,623.85 358.13,624.53 358.03,625.23 C357.56,627.24 357.06,628.86 356.71,629.50 C356.10,630.60 355.34,638.03 355.02,646.00 C354.58,657.13 354.32,659.10 353.90,654.50 C353.60,651.20 353.73,644.00 354.17,638.50 C354.95,628.98 355.23,626.42 356.61,616.00 C356.74,614.99 356.95,613.86 357.21,612.65 C357.64,611.22 358.11,609.59 358.54,608.00 C359.01,606.24 359.44,604.65 359.83,603.22 ZM 625.92 217.07 C629.18,205.79 632.17,199.87 636.15,196.84 C638.05,195.38 644.21,192.74 649.83,190.96 C655.45,189.17 659.93,187.60 659.77,187.46 C659.62,187.33 655.24,185.79 650.03,184.05 C644.82,182.31 639.08,179.98 637.27,178.86 C633.11,176.29 629.96,170.78 626.49,160.00 C624.98,155.32 623.41,151.12 622.99,150.67 C622.57,150.21 621.00,153.81 619.49,158.67 C617.56,164.89 615.81,169.40 613.98,172.66 C613.69,173.19 613.39,173.68 613.09,174.15 L 613.09 174.15 C611.75,176.22 610.36,177.67 608.82,178.69 C608.66,178.80 608.48,178.91 608.29,179.02 C606.22,180.18 601.54,182.09 596.92,183.64 C592.79,184.98 588.84,185.99 587.12,185.97 C583.46,185.93 585.64,184.79 595.50,181.59 C597.65,180.90 599.51,180.24 601.13,179.61 C604.12,178.55 606.47,177.30 608.29,175.77 C609.86,174.49 610.94,173.06 611.84,171.29 C613.44,168.14 617.73,155.72 620.90,145.06 C621.80,142.03 623.66,141.29 624.34,143.69 C627.73,155.65 632.36,169.15 633.94,171.71 C636.50,175.86 643.76,179.55 657.00,183.43 C662.78,185.12 667.63,186.91 667.80,187.41 C667.96,187.91 663.01,189.84 656.80,191.71 C642.31,196.05 637.05,198.67 634.22,202.95 C633.92,203.40 633.52,204.18 633.06,205.20 L 633.05 205.21 C631.66,208.28 629.71,213.42 628.12,218.40 C625.86,225.42 623.65,230.62 622.85,230.78 C621.92,230.97 621.04,229.22 620.15,225.40 C618.54,218.48 613.58,205.86 610.94,201.94 C610.89,201.87 610.84,201.80 610.80,201.73 C608.15,198.00 604.59,196.27 590.54,191.93 C584.39,190.02 579.12,187.95 578.27,187.13 C578.35,186.89 578.76,186.60 579.64,186.22 C581.28,186.50 584.48,187.37 590.50,189.06 C592.52,189.72 595.25,190.59 597.97,191.44 C611.85,195.79 614.44,198.71 619.54,215.75 C621.06,220.84 622.61,225.00 622.97,225.00 C623.33,225.00 624.66,221.43 625.92,217.07 ZM 394.81 739.07 C394.59,740.01 394.53,740.78 394.64,741.44 L 394.50 743.36 L 399.69 744.93 C402.54,745.79 405.21,746.84 405.61,747.25 C406.45,748.12 405.93,748.08 400.50,746.90 C398.30,746.41 393.80,745.54 390.50,744.95 C387.20,744.36 381.58,743.05 378.00,742.04 C355.01,735.54 351.41,734.18 360.23,735.34 C365.05,735.97 366.46,735.21 367.32,729.68 C367.76,728.12 367.90,727.14 367.74,726.23 C368.06,723.38 368.76,721.18 369.33,721.30 C369.91,721.41 370.57,720.60 370.81,719.50 C371.81,714.78 375.23,707.02 376.08,707.55 C376.58,707.86 377.00,709.48 377.00,711.14 C377.00,713.50 378.27,715.40 382.79,719.83 C385.98,722.95 389.26,726.57 390.09,727.89 C391.42,730.00 391.83,730.12 393.70,728.96 C394.85,728.23 395.60,727.12 395.35,726.48 C395.11,725.84 395.64,724.71 396.54,723.97 C398.00,722.75 398.10,723.00 397.51,726.56 C397.14,728.73 396.45,731.62 395.96,733.00 C395.49,734.30 394.99,736.96 394.81,739.07 ZM 357.33 870.37 C358.56,868.64 359.66,867.00 360.33,865.92 C360.75,865.25 361.00,864.79 361.00,864.66 C361.00,863.17 377.32,841.56 391.83,823.83 L 394.16 820.98 L 392.17 814.74 C388.93,804.54 387.93,799.25 387.30,788.88 C386.82,781.06 386.37,778.95 385.10,778.58 C373.44,775.24 356.94,771.00 355.63,771.00 C354.71,771.00 353.49,772.21 352.93,773.69 C350.75,779.41 341.84,792.88 336.07,799.19 L 330.02 805.79 L 330.98 809.66 L 330.98 809.67 L 332.42 815.47 C332.80,817.08 333.20,818.86 333.62,820.80 C335.52,829.97 337.04,841.14 336.36,841.92 C335.60,842.79 335.08,841.18 333.14,831.99 C332.53,829.07 331.69,825.20 330.89,821.51 C330.32,818.76 329.73,816.07 329.06,813.15 L 327.16 804.80 L 332.63 798.86 C338.72,792.23 345.12,782.72 349.93,773.16 C351.73,769.58 353.63,767.02 354.31,767.26 C354.96,767.50 363.20,769.62 372.61,771.99 L 389.73 776.28 L 390.27 786.39 C390.90,797.98 393.19,809.95 396.08,816.69 L 398.03 821.24 L 394.53 825.08 C390.54,829.33 383.18,838.69 375.03,849.71 C371.79,853.93 368.77,857.83 367.07,860.00 C364.27,863.58 360.07,869.30 357.74,872.73 C353.62,878.79 350.74,881.28 353.10,876.75 C353.53,875.93 354.58,874.27 355.78,872.51 C356.24,871.87 356.76,871.16 357.33,870.37 ZM 565.66 266.03 C565.32,264.35 564.10,260.77 562.94,258.08 C560.97,253.51 560.42,253.03 554.67,250.99 C551.27,249.78 547.94,248.63 547.25,248.43 C544.80,247.71 546.06,246.30 550.25,245.06 C559.36,242.37 561.74,240.28 564.25,232.76 C565.51,228.96 566.98,225.85 567.50,225.85 C568.02,225.85 569.51,229.02 570.80,232.89 C573.06,239.68 573.32,240.00 578.32,242.33 C581.17,243.65 584.77,245.04 586.32,245.40 C590.42,246.38 589.22,247.95 582.46,250.49 C579.18,251.71 575.74,253.05 574.80,253.44 C573.85,253.86 572.08,257.26 570.74,261.27 C568.11,269.17 566.57,270.61 565.66,266.03 ZM 683.68 362.09 C679.79,374.32 675.10,386.99 670.14,398.48 C667.07,405.37 663.71,412.37 660.04,419.47 C653.44,431.98 645.12,446.24 637.51,458.36 C634.98,462.32 632.36,466.31 629.66,470.32 C627.63,473.34 625.97,475.77 624.56,477.76 C622.20,480.98 620.22,483.43 618.79,484.84 C618.09,485.47 617.44,485.91 616.78,486.26 C616.42,486.40 615.93,486.62 615.32,486.90 C613.47,487.71 609.74,489.53 605.66,491.62 L 605.66 491.62 C600.07,494.43 593.74,497.69 589.63,499.92 C587.65,500.92 586.04,501.72 585.11,502.16 C581.86,503.68 581.08,504.44 582.11,505.09 C583.17,505.76 583.00,505.97 581.42,505.98 C580.27,505.99 579.03,505.70 578.67,505.34 C577.45,504.12 582.61,500.42 593.79,494.46 C595.95,493.34 598.34,492.11 601.00,490.75 C602.35,490.06 603.67,489.38 604.95,488.72 C607.03,487.66 608.82,486.73 610.37,485.88 C614.46,483.72 617.34,482.13 617.75,481.78 C618.09,481.50 619.34,479.83 621.07,477.35 C623.32,474.54 625.73,470.77 629.47,465.00 C631.98,461.13 634.55,457.19 636.29,454.56 C637.18,453.22 637.84,452.24 638.15,451.79 C639.17,450.30 640.00,448.67 640.00,448.18 C640.00,447.68 640.88,446.15 641.96,444.77 C644.46,441.60 654.51,423.92 659.82,413.36 C665.20,402.67 672.65,384.95 676.87,373.11 C677.86,370.36 678.74,367.79 679.46,365.50 C681.55,358.90 683.66,353.07 684.13,352.55 C685.53,351.02 685.18,356.24 683.68,362.09 ZM 557.82 363.92 C558.53,365.96 558.56,367.10 558.11,367.29 C557.62,367.42 556.61,366.52 555.27,364.61 C554.63,363.65 554.05,362.74 553.52,361.86 C552.03,359.26 551.73,357.80 552.25,356.25 C552.39,355.84 552.78,355.59 553.12,355.71 C553.45,355.82 553.97,353.23 554.27,349.96 C554.46,347.84 554.84,345.75 555.40,343.70 C557.84,336.54 561.69,330.15 567.52,324.08 L 567.52 324.07 C578.13,313.38 595.38,303.03 620.50,291.96 C644.21,281.51 658.78,274.64 668.73,268.78 C673.70,265.85 677.51,263.17 680.73,260.43 C682.06,259.38 683.39,258.29 684.77,257.13 C687.68,254.70 690.29,252.95 690.58,253.24 C690.87,253.53 689.90,254.72 688.42,255.89 C686.94,257.05 686.09,258.00 686.52,258.00 C686.95,258.00 686.50,258.90 685.50,260.00 C684.51,261.09 683.38,261.99 682.96,262.00 C682.55,262.00 680.76,263.35 678.99,265.01 C677.22,266.66 671.31,270.54 665.86,273.63 C656.49,278.93 650.12,281.95 616.50,296.99 C585.64,310.80 567.61,324.08 560.24,338.45 C558.21,342.40 557.55,345.39 557.20,352.19 C556.96,357.00 557.23,362.23 557.82,363.92 ZM 656.11 263.16 C646.83,268.10 634.95,273.83 620.43,280.37 C582.79,297.34 564.23,310.83 555.79,327.34 C553.98,330.86 553.16,333.03 552.69,336.45 L 552.69 336.46 C552.42,338.39 552.25,340.75 552.07,344.00 L 551.50 354.50 L 550.11 350.30 C549.60,348.76 549.27,347.13 549.12,345.44 C549.12,344.68 549.15,343.88 549.19,343.06 C549.35,339.74 549.75,336.79 550.46,333.99 C552.18,328.27 555.39,322.29 559.95,316.56 C568.17,306.24 577.09,299.12 597.07,288.70 C605.38,284.37 615.61,279.47 628.50,273.52 C657.77,260.03 667.38,254.47 676.75,245.60 C680.98,241.60 681.00,241.59 681.00,244.21 C681.00,244.89 680.73,245.65 680.20,246.49 C675.28,251.68 667.62,256.95 656.11,263.16 ZM 348.64 853.75 C349.45,850.31 351.01,843.40 352.12,838.39 L 353.39 832.64 L 354.17 829.33 L 351.58 825.53 C348.64,821.20 348.25,816.35 350.49,812.01 C352.75,807.65 355.80,806.00 361.59,806.00 C369.82,806.00 374.05,810.73 373.53,819.34 C373.28,823.40 369.16,828.67 365.51,829.59 L 365.46 829.60 C363.73,830.03 362.97,831.82 361.10,839.81 C360.97,840.36 360.85,840.88 360.73,841.38 C360.26,843.16 359.74,845.21 359.15,847.57 C358.12,851.18 357.11,853.74 355.24,858.00 C353.11,862.83 353.95,857.19 357.51,842.82 C359.42,835.10 361.10,828.68 361.26,828.46 L 361.26 828.46 C361.26,828.46 361.26,828.46 361.26,828.46 C361.39,828.35 363.13,827.51 365.11,826.59 C371.59,823.57 373.04,815.89 368.08,810.92 C365.91,808.76 364.21,808.00 361.50,808.00 C353.14,808.00 348.70,818.79 354.62,824.71 L 354.64 824.73 L 354.65 824.74 L 356.34 826.43 C357.22,828.07 356.36,831.83 352.00,850.84 L 351.93 851.17 C350.90,855.35 350.04,858.32 349.71,858.75 C347.62,861.47 347.25,859.71 348.64,853.75 ZM 554.45 451.38 C554.93,449.70 554.42,449.00 551.98,447.99 L 548.91 446.72 L 551.21 444.25 C556.97,438.05 583.62,416.83 592.79,410.77 L 592.79 410.77 C593.26,410.46 593.69,410.19 594.08,409.95 C595.03,409.37 595.65,409.08 595.84,409.15 C596.34,409.34 587.10,419.40 575.30,431.50 C563.50,443.60 554.12,452.55 554.45,451.38 ZM 543.08 610.82 C540.76,613.00 538.35,615.05 535.83,616.99 C535.80,617.00 535.77,617.00 535.74,617.00 C535.17,617.00 532.33,618.58 529.43,620.50 C526.53,622.42 523.35,624.00 522.35,624.00 C521.10,624.00 521.67,623.23 524.21,621.50 C526.24,620.12 528.18,619.00 528.53,619.00 C530.00,619.00 544.11,606.64 548.75,601.29 C552.39,597.08 557.44,589.51 563.15,579.81 L 563.15 579.81 C566.72,574.01 570.31,567.56 573.99,560.37 C574.45,559.47 574.90,558.59 575.34,557.72 L 575.34 557.72 C576.70,555.12 578.07,552.45 579.43,549.74 C584.90,538.90 589.51,530.18 589.70,530.36 C589.88,530.54 587.94,535.37 585.40,541.09 C582.86,546.82 580.16,553.21 579.38,555.29 C579.00,556.34 578.54,557.47 578.02,558.68 L 577.86 559.00 C568.88,577.18 560.92,590.57 552.19,601.11 C549.39,604.36 546.04,607.90 543.08,610.82 ZM 652.26 148.09 C651.68,147.67 651.08,147.31 650.48,147.04 L 646.50 145.21 L 650.78 143.35 C651.87,142.88 652.71,142.46 653.40,141.99 C654.48,141.81 655.57,140.16 656.70,137.00 C658.67,131.44 660.00,131.07 661.22,135.76 C662.14,139.33 666.17,142.88 670.22,143.69 C673.36,144.32 673.87,145.78 671.25,146.63 C664.95,148.65 663.69,149.57 661.71,153.66 C660.66,155.83 659.71,157.25 659.04,157.77 C658.63,157.93 658.31,157.60 658.00,156.83 C658.00,156.80 658.00,156.77 658.00,156.73 C658.00,155.69 657.57,154.44 656.85,153.18 C655.88,150.77 654.43,149.15 652.26,148.09 ZM 405.31 769.96 C405.24,770.03 405.14,770.09 405.01,770.14 C404.15,770.33 401.88,770.06 399.50,769.45 C398.46,769.18 396.65,768.73 394.42,768.18 C390.28,767.08 378.91,764.22 367.50,761.41 C361.74,760.00 356.39,758.64 352.23,757.54 C346.01,755.65 344.00,754.49 344.00,753.38 C344.00,751.75 344.44,751.68 346.76,752.93 C347.99,753.59 368.73,758.85 384.84,762.74 C393.81,764.96 401.26,766.71 402.68,766.87 C402.71,766.87 402.74,766.87 402.77,766.87 C403.24,766.95 403.56,767.00 403.70,767.00 C403.81,767.00 404.43,764.31 405.08,761.02 C405.72,757.73 406.86,754.24 407.59,753.27 C408.81,751.66 408.94,751.78 408.93,754.50 C408.93,755.90 408.57,758.30 408.07,760.80 C406.87,765.71 405.70,769.63 405.31,769.96 ZM 524.91 369.44 C525.20,369.30 525.48,369.15 525.74,368.97 C527.12,368.05 528.08,366.68 529.24,364.21 L 531.41 359.60 L 533.24 363.79 C534.36,366.35 536.24,368.59 538.07,369.54 L 541.08 371.09 L 537.64 374.43 C535.76,376.26 533.91,378.71 533.54,379.88 C532.55,382.99 530.59,382.47 528.75,378.60 C527.62,376.23 526.04,374.84 523.56,374.02 C519.07,372.54 519.06,371.47 523.54,369.99 C524.04,369.82 524.50,369.64 524.91,369.44 ZM 512.88 650.23 C506.05,656.67 498.31,663.58 492.48,668.30 C486.99,672.33 482.00,675.25 482.00,674.25 C482.00,673.96 483.66,672.32 485.70,670.61 C505.03,654.36 522.00,638.37 522.00,636.44 C522.00,635.41 524.07,634.00 525.58,634.00 C527.72,634.00 521.33,641.72 512.88,650.23 ZM 682.95 216.25 C681.23,213.64 677.49,209.33 674.66,206.68 L 673.27 205.38 L 669.66 201.88 L 673.00 202.53 C673.63,202.65 674.29,202.83 674.96,203.04 C677.59,203.99 681.06,205.81 684.32,207.85 C688.23,210.57 691.47,213.82 692.38,216.40 C692.81,217.60 691.39,216.77 688.55,214.15 C686.66,212.41 685.21,211.23 684.25,210.63 C683.68,210.23 683.24,210.00 683.00,210.00 C682.04,210.00 682.12,210.47 683.31,211.79 C683.37,211.86 683.44,211.93 683.50,212.01 C683.76,212.47 684.10,213.01 684.53,213.64 C685.20,214.62 685.77,215.70 686.20,216.72 C686.49,217.47 686.75,218.25 686.97,219.07 C687.21,220.22 687.11,221.00 686.55,221.00 C686.30,221.00 684.68,218.86 682.95,216.25 ZM 577.45 352.55 C576.10,351.20 575.00,349.24 575.00,348.20 C575.00,344.10 581.89,341.29 584.80,344.20 C586.86,346.26 586.26,351.71 583.78,353.44 C580.84,355.50 580.34,355.43 577.45,352.55 ZM 630.65 310.17 C628.72,308.03 628.48,303.92 630.20,302.20 C630.86,301.54 632.79,301.00 634.50,301.00 C638.30,301.00 640.00,302.56 640.00,306.05 C640.00,311.18 633.98,313.84 630.65,310.17 ZM 638.01 259.53 L 638.00 259.51 C637.48,258.15 636.15,256.49 635.04,255.79 C632.45,254.17 632.43,252.38 634.99,251.71 C635.11,251.68 635.23,251.64 635.35,251.58 C635.98,251.34 636.71,250.64 637.30,249.77 L 637.30 249.77 C637.61,249.32 637.88,248.84 638.06,248.35 C639.12,245.58 639.19,245.56 640.53,247.50 C640.67,247.71 640.83,247.93 641.01,248.16 C642.05,249.63 642.82,250.57 643.51,251.14 C644.89,252.56 644.85,253.13 642.92,257.03 C642.16,257.74 641.65,258.54 641.43,259.43 C641.35,259.74 641.27,260.01 641.18,260.26 C641.18,260.26 641.18,260.26 641.18,260.26 C640.41,261.48 639.85,261.94 639.34,261.71 C638.90,261.39 638.44,260.66 638.01,259.53 ZM 592.75 328.92 C590.01,327.32 590.45,322.21 593.46,320.84 C595.43,319.94 596.42,320.05 598.46,321.38 C601.45,323.34 601.73,326.03 599.17,328.35 C597.09,330.23 595.27,330.39 592.75,328.92 ZM 659.86 239.06 C657.63,237.23 657.58,236.97 659.03,234.32 C659.88,232.78 661.36,231.36 662.33,231.17 C666.44,230.38 668.63,236.22 665.43,239.43 C663.40,241.45 662.72,241.41 659.86,239.06 ZM 567.20 361.80 C565.45,360.05 565.73,358.22 567.93,357.04 C570.19,355.83 573.00,356.65 573.00,358.53 C573.00,362.62 569.81,364.41 567.20,361.80 ZM 575.04 286.07 C573.80,283.76 576.36,280.54 578.71,281.44 C579.51,281.75 580.35,282.00 580.58,282.00 C581.52,282.00 580.92,285.68 579.80,286.80 C578.05,288.55 576.21,288.27 575.04,286.07 ZM 683.46 237.39 C683.66,236.91 684.00,235.89 684.39,234.62 C684.47,234.39 684.54,234.16 684.60,233.92 C685.01,232.57 685.46,231.01 685.87,229.50 L 687.50 223.50 L 687.80 228.25 C687.86,229.12 687.86,229.99 687.80,230.83 C687.64,232.20 687.40,233.53 687.05,234.83 C686.38,236.90 685.33,238.41 684.09,238.81 C683.05,239.15 682.89,238.78 683.46,237.39 ZM 492.00 637.29 C492.83,636.99 495.52,635.83 498.00,634.72 C500.48,633.60 503.06,632.69 503.75,632.68 C504.44,632.67 505.00,632.36 505.00,631.99 C505.00,631.34 509.46,629.00 510.70,629.00 C512.46,629.00 506.36,632.97 502.26,634.49 C499.64,635.47 497.07,636.65 496.55,637.13 C496.03,637.61 494.45,637.96 493.05,637.92 C491.53,637.87 491.10,637.62 492.00,637.29 ZM 693.71 180.38 C693.32,179.99 693.00,178.59 693.00,177.27 C693.00,175.24 693.43,174.92 695.75,175.18 C697.93,175.43 698.50,176.02 698.50,178.00 C698.50,179.75 697.89,180.59 696.46,180.79 C695.34,180.95 694.10,180.77 693.71,180.38 ZM 621.71 246.38 C620.27,244.93 621.07,242.11 623.10,241.47 C625.63,240.67 627.32,242.10 626.83,244.64 C626.48,246.52 623.02,247.69 621.71,246.38 ZM 654.39 299.57 C653.39,296.98 654.79,294.83 657.25,295.18 C658.90,295.41 659.50,296.17 659.50,298.00 C659.50,299.83 658.90,300.59 657.25,300.82 C655.89,301.01 654.75,300.51 654.39,299.57 ZM 529.04 329.54 C527.43,327.61 528.55,326.00 531.50,326.00 C534.27,326.00 535.26,327.16 534.40,329.41 C533.63,331.40 530.64,331.47 529.04,329.54 ZM 709.99 239.49 C708.89,238.16 708.93,237.64 710.26,236.31 C712.40,234.17 715.23,235.36 714.82,238.24 C714.43,240.97 711.79,241.66 709.99,239.49 ZM 661.71 219.38 C661.32,218.99 661.00,217.81 661.00,216.77 C661.00,215.28 661.60,214.94 663.75,215.18 C665.73,215.41 666.50,216.06 666.50,217.50 C666.50,219.51 663.15,220.82 661.71,219.38 ZM 630.71 328.38 C630.32,327.99 630.00,326.81 630.00,325.77 C630.00,324.28 630.60,323.94 632.75,324.18 C634.73,324.41 635.50,325.06 635.50,326.50 C635.50,328.51 632.15,329.82 630.71,328.38 ZM 347.78 886.97 C347.45,886.83 347.19,886.30 347.08,885.58 C347.29,882.80 348.82,880.65 350.82,880.35 C352.42,880.10 353.08,880.18 352.81,881.05 C350.61,884.07 348.87,886.26 348.19,886.84 C348.04,886.91 347.90,886.96 347.78,886.97 ZM 346.42 745.50 C347.16,739.35 348.25,735.00 349.05,735.00 C350.14,735.00 349.08,741.70 347.39,745.50 L 346.06 748.50 ZM 342.00 881.01 C342.00,879.28 342.70,877.15 343.56,876.29 C344.98,874.87 345.10,875.13 344.81,879.04 C344.44,884.13 342.00,885.85 342.00,881.01 ZM 234.11 911.03 C234.56,911.33 235.95,911.64 237.21,911.74 L 239.50 911.90 L 237.00 909.92 C235.62,908.83 233.68,907.47 232.67,906.90 C231.01,905.94 230.96,906.06 232.07,908.17 C232.75,909.45 233.66,910.74 234.11,911.03 ZM 601.44 263.89 C600.28,261.65 600.13,260.47 600.91,259.69 C602.00,258.60 602.12,258.81 602.40,262.25 C602.46,262.94 603.36,264.29 604.40,265.25 C606.04,266.75 606.08,267.00 604.68,267.00 C603.78,267.00 602.33,265.60 601.44,263.89 ZM 668.00 328.06 C668.00,326.67 669.84,325.78 671.11,326.57 C671.88,327.04 671.80,327.51 670.86,328.11 C669.07,329.24 668.00,329.22 668.00,328.06 ZM 450.25 741.44 C448.78,739.84 448.65,739.00 449.89,739.00 C450.75,739.00 452.34,742.01 451.77,742.54 C451.62,742.68 450.94,742.19 450.25,741.44 Z" fill="rgb(244,227,157)"/>
<path d="M 0.00 512.00 L 0.00 0.00 L 512.00 0.00 L 1024.00 0.00 L 1024.00 512.00 L 1024.00 1024.00 L 512.00 1024.00 L 0.00 1024.00 L 0.00 512.00 ZM 546.50 1020.50 C569.16,1018.91 589.20,1016.33 609.00,1012.46 C621.44,1010.03 623.18,1009.65 636.50,1006.42 C677.42,996.51 725.27,977.70 758.50,958.48 C764.00,955.30 770.02,951.84 771.88,950.79 C784.55,943.66 811.15,925.44 825.50,914.07 C877.37,872.95 917.44,827.36 952.54,769.50 C966.09,747.18 985.85,703.87 994.63,677.25 C1023.78,588.88 1029.38,499.85 1011.44,410.00 C1003.91,372.31 992.36,336.06 977.50,303.50 C972.68,292.93 960.73,269.32 956.98,262.97 C955.34,260.19 954.00,257.70 954.00,257.44 C954.00,255.36 930.75,220.77 918.40,204.50 C874.04,146.03 811.36,93.06 747.44,60.03 C650.20,9.79 536.78,-7.97 428.50,10.10 C320.95,28.05 227.93,76.11 149.98,154.00 C127.37,176.59 109.17,198.66 89.39,227.50 C80.16,240.96 79.21,242.46 70.52,257.50 C27.49,332.00 5.42,412.19 3.34,501.50 C1.12,597.02 26.59,694.75 73.90,772.31 C77.53,778.26 80.95,783.89 81.51,784.81 C85.39,791.29 98.85,810.47 106.55,820.50 C137.15,860.33 178.75,900.61 217.50,927.93 C232.93,938.81 260.27,956.10 268.50,960.18 C270.15,961.00 276.45,964.18 282.50,967.25 C362.76,1008.00 456.27,1026.86 546.50,1020.50 ZM 234.11 911.03 C233.66,910.74 232.75,909.45 232.07,908.17 C230.96,906.06 231.01,905.94 232.67,906.90 C233.68,907.47 235.62,908.83 237.00,909.92 L 239.50 911.90 L 237.21 911.74 C235.95,911.64 234.56,911.33 234.11,911.03 Z" fill="rgb(253,253,252)"/>
</g>
</svg>